<?xml version="1.0" standalone="no"?>
<!DOCTYPE svg PUBLIC "-//W3C//DTD SVG 20010904//EN"
 "http://www.w3.org/TR/2001/REC-SVG-20010904/DTD/svg10.dtd">
<svg version="1.0" xmlns="http://www.w3.org/2000/svg"
 width="846.000000pt" height="846.000000pt" viewBox="0 0 846.000000 846.000000"
 preserveAspectRatio="xMidYMid meet">
<metadata>
Created by potrace 1.14, written by Peter Selinger 2001-2017
</metadata>
<g transform="translate(0.000000,846.000000) scale(0.100000,-0.100000)"
fill="#000000" stroke="none">
<path d="M3990 7760 c0 -5 -26 -9 -60 -7 -33 1 -60 -1 -60 -5 0 -4 -14 -6 -30
-4 -17 2 -33 -1 -36 -5 -3 -5 -11 -6 -17 -3 -7 4 -9 4 -5 -1 4 -4 3 -17 -3
-28 -8 -15 -8 -18 1 -12 9 6 9 2 1 -14 -7 -12 -8 -21 -2 -21 6 0 6 -11 1 -30
-6 -20 -5 -28 1 -24 6 3 9 -2 8 -12 -2 -11 0 -24 4 -31 4 -6 3 -14 -3 -18 -6
-4 -5 -16 5 -34 11 -22 11 -31 2 -40 -9 -9 -8 -14 3 -21 8 -5 10 -10 5 -10
-11 0 -16 -40 -5 -40 11 0 9 -74 -2 -88 -11 -13 -11 -14 1 -8 10 7 12 -2 10
-43 -3 -36 0 -51 9 -51 6 0 12 -5 12 -11 0 -8 5 -8 15 1 9 7 15 8 15 2 0 -6 8
-9 18 -7 9 2 26 4 37 4 17 1 17 3 5 11 -13 9 -13 10 0 10 13 0 13 1 0 10 -8 5
-10 10 -5 10 14 0 12 39 -4 68 -6 12 -8 22 -3 22 4 0 8 9 8 20 0 11 -4 20 -8
20 -4 0 -8 4 -8 10 0 6 3 9 8 8 4 -1 17 3 30 10 16 9 22 10 22 1 0 -9 3 -9 14
0 11 9 15 9 19 -1 4 -10 6 -10 6 0 1 11 3 11 14 0 13 -13 30 -49 27 -57 -1 -2
6 -8 15 -13 12 -7 13 -13 5 -23 -8 -9 -6 -14 5 -19 9 -3 13 -10 10 -16 -3 -5
-1 -10 4 -10 6 0 11 -9 11 -21 0 -11 5 -17 10 -14 6 3 10 1 10 -5 0 -6 5 -8
12 -4 8 5 9 2 4 -12 -6 -16 -4 -15 14 4 16 17 25 20 35 12 9 -7 16 -6 26 7 12
14 12 16 0 8 -11 -6 -13 -2 -9 18 4 18 1 24 -9 20 -9 -4 -11 0 -6 13 4 11 3
15 -5 10 -7 -4 -10 1 -7 14 2 11 0 20 -6 20 -5 0 -9 9 -9 21 0 11 -4 17 -10
14 -6 -4 -10 5 -10 19 0 15 -6 26 -13 26 -7 0 -13 9 -13 19 0 16 3 17 14 9 7
-6 12 -7 11 -2 -4 15 12 44 21 39 5 -3 7 6 6 20 -2 13 0 22 5 20 4 -3 7 4 6
15 -1 11 -6 20 -12 20 -6 0 -7 3 0 8 13 9 15 52 2 52 -5 0 -3 8 4 17 12 14 12
16 0 8 -11 -6 -13 -3 -8 14 3 15 -1 29 -13 41 -10 10 -16 20 -14 23 2 2 -6 12
-18 23 -19 16 -20 16 -9 1 12 -15 12 -17 -3 -11 -9 3 -16 10 -16 15 0 5 -9 9
-20 9 -11 0 -20 5 -20 11 0 8 -5 8 -15 -1 -10 -9 -15 -9 -15 -1 0 6 -4 11 -10
11 -5 0 -10 -4 -10 -10z m154 -86 c3 -8 2 -12 -4 -9 -6 3 -10 10 -10 16 0 14
7 11 14 -7z m-150 -36 c-5 -8 -2 -9 9 -5 10 3 24 4 32 1 14 -6 13 -8 -2 -20
-10 -8 -13 -14 -8 -13 22 3 25 -2 14 -22 -8 -15 -8 -19 0 -15 7 5 10 0 8 -11
-5 -33 -17 -44 -36 -33 -12 6 -22 5 -29 -2 -9 -9 -12 -8 -12 3 0 12 -2 12 -10
-1 -7 -12 -12 -12 -22 -2 -6 6 -17 12 -23 12 -5 0 -3 -5 5 -11 13 -9 13 -10 0
-6 -9 2 -14 14 -13 31 1 14 -2 26 -8 26 -5 0 -9 5 -9 11 0 5 4 7 10 4 5 -3 7
0 4 8 -6 17 21 41 40 34 8 -3 22 1 33 8 22 18 26 18 17 3z"/>
<path d="M4595 7740 c-4 -6 -12 -10 -18 -9 -25 3 -37 -2 -62 -25 -15 -14 -24
-30 -20 -35 3 -6 1 -11 -5 -11 -6 0 -8 -4 -5 -10 3 -5 2 -10 -4 -10 -5 0 -8
-9 -6 -20 2 -11 -1 -20 -7 -20 -7 0 -6 -6 2 -15 10 -11 10 -15 0 -15 -6 0 -10
-6 -7 -12 2 -7 0 -21 -5 -32 -8 -14 -7 -17 4 -10 10 6 11 4 2 -7 -5 -8 -9 -24
-8 -36 0 -13 -2 -23 -7 -23 -5 0 -6 -7 -3 -15 3 -8 2 -20 -2 -26 -4 -7 -9 -31
-10 -53 -2 -22 -6 -46 -8 -53 -3 -7 2 -13 11 -13 13 0 14 -3 5 -12 -15 -15
-16 -32 -2 -23 6 3 10 -1 10 -9 0 -8 9 -18 20 -21 11 -3 20 -13 20 -22 0 -13
3 -13 15 -3 10 9 15 9 15 1 0 -6 9 -11 21 -11 11 0 18 -4 14 -9 -3 -6 6 -6 25
-1 17 5 28 5 25 0 -3 -5 3 -8 12 -8 10 0 27 -3 37 -7 15 -7 17 -5 11 6 -8 12
-6 12 8 0 13 -10 17 -11 17 -1 0 9 6 7 20 -5 17 -16 20 -16 26 -2 3 9 12 13
19 11 7 -3 16 0 20 5 3 6 11 9 16 5 5 -3 8 0 7 8 -2 7 3 12 11 10 12 -3 12 -1
0 14 -9 12 -9 15 -1 10 7 -4 12 -1 12 9 0 9 4 14 9 10 6 -3 8 6 5 21 -3 14 -1
23 4 20 4 -2 9 4 9 15 1 13 -2 17 -10 12 -9 -5 -9 -3 -1 8 13 17 14 49 2 49
-5 0 -2 7 6 16 19 18 20 28 6 55 -8 14 -8 19 1 17 14 -3 19 28 20 119 0 58 -2
65 -33 95 -33 32 -48 40 -75 41 -7 0 -13 4 -13 8 0 9 -20 6 -39 -5 -9 -6 -12
-5 -8 1 4 6 0 13 -7 16 -8 3 -17 1 -20 -6 -3 -9 -5 -9 -5 0 -1 6 -10 9 -21 6
-11 -3 -26 0 -34 6 -10 9 -16 9 -21 1z m39 -122 c-5 -7 -2 -9 8 -5 9 3 21 0
28 -6 10 -9 11 -9 5 1 -6 11 -3 12 12 3 11 -6 23 -7 27 -4 3 3 6 1 6 -7 0 -10
3 -10 15 0 12 10 15 10 16 -1 5 -42 3 -55 -11 -67 -13 -10 -12 -11 5 -5 16 5
18 4 9 -8 -5 -8 -10 -21 -9 -29 0 -8 -4 -19 -10 -23 -7 -6 -6 -10 2 -13 9 -4
8 -15 -2 -45 -11 -29 -11 -39 -2 -39 7 0 4 -5 -5 -11 -10 -5 -18 -15 -18 -22
0 -8 4 -6 11 3 9 12 10 11 4 -5 -3 -11 -7 -24 -8 -30 -3 -18 -21 -24 -40 -13
-14 7 -17 7 -13 -1 10 -15 -7 -14 -22 1 -9 9 -12 9 -12 -2 -1 -13 -2 -13 -13
0 -15 18 -37 24 -37 9 0 -6 -7 -4 -15 5 -17 17 -20 66 -4 66 8 0 8 4 0 14 -8
9 -8 16 -2 20 5 4 8 15 6 26 -2 11 0 20 4 20 9 0 8 31 -2 47 -4 6 0 14 8 17
16 6 16 26 0 38 -6 5 -5 8 2 8 7 0 10 7 7 15 -4 8 -1 15 7 15 7 0 9 3 6 7 -4
3 3 12 16 19 29 16 29 16 21 2z"/>
<path d="M3350 7659 c0 -4 -9 -9 -20 -12 -21 -5 -23 -26 -5 -39 6 -5 5 -8 -3
-8 -10 0 -10 -5 -2 -20 6 -11 8 -26 4 -32 -5 -7 -3 -8 6 -3 10 6 12 3 8 -13
-4 -12 -2 -22 4 -22 5 0 6 -4 3 -10 -3 -5 0 -10 7 -10 9 0 9 -3 -2 -10 -10 -6
-11 -10 -2 -10 6 0 11 -6 10 -12 -4 -20 -36 -35 -68 -33 -18 1 -27 -2 -23 -8
4 -6 0 -8 -10 -4 -9 3 -18 -1 -21 -10 -5 -11 -10 -13 -20 -4 -7 6 -16 8 -19 4
-4 -3 -7 1 -7 10 0 10 -6 17 -12 17 -9 0 -8 4 2 10 11 7 11 10 2 10 -7 0 -10
5 -7 10 3 6 2 10 -4 10 -5 0 -8 9 -6 20 2 11 -1 20 -6 20 -6 0 -9 8 -8 18 3
33 -1 43 -13 36 -9 -5 -9 -2 1 9 12 15 11 17 -13 17 -19 0 -25 -4 -20 -12 6
-10 5 -10 -7 -1 -12 10 -18 10 -29 0 -10 -10 -11 -9 -5 3 4 8 -1 6 -11 -5 -20
-20 -28 -69 -10 -58 5 4 7 -1 3 -10 -3 -10 -2 -17 3 -17 5 0 7 -9 5 -20 -2
-11 1 -20 6 -20 6 0 7 -9 4 -21 -4 -13 -3 -19 3 -16 5 4 8 -4 6 -18 -1 -14 2
-25 7 -25 5 0 9 -11 9 -25 0 -14 5 -25 11 -25 8 0 7 -6 -2 -17 -10 -11 -10
-14 -1 -9 8 5 12 -2 12 -24 0 -22 4 -29 13 -24 9 5 9 4 0 -6 -14 -15 -6 -43
10 -33 6 4 8 0 4 -10 -4 -10 -2 -17 5 -17 7 0 7 -4 -1 -14 -7 -8 -8 -16 -2
-18 5 -1 11 -16 13 -33 1 -16 9 -37 17 -44 15 -17 51 -22 51 -8 0 5 8 7 18 5
30 -8 55 37 27 48 -12 5 -13 9 -4 20 9 11 8 14 -1 14 -7 0 -10 7 -6 16 4 10 2
13 -6 8 -8 -5 -9 -2 -5 9 3 9 1 19 -5 23 -7 4 -6 9 3 15 11 7 9 9 -6 9 -15 0
-17 3 -7 9 11 7 11 9 -2 14 -9 4 -13 13 -10 22 3 8 10 12 15 9 5 -3 9 0 9 6 0
6 4 9 9 5 5 -3 12 -1 16 5 4 6 11 8 16 5 5 -4 9 -2 9 4 0 6 6 8 14 5 8 -3 17
0 21 6 4 6 15 8 26 5 11 -4 19 -2 19 6 0 9 4 8 15 -1 8 -7 12 -16 9 -21 -3 -5
0 -9 7 -9 7 0 9 -3 6 -7 -4 -3 -1 -13 6 -21 9 -13 9 -14 0 -8 -9 5 -11 2 -7
-8 3 -9 11 -16 16 -16 6 0 5 -6 -2 -15 -10 -12 -10 -15 0 -15 7 0 10 -7 6 -16
-3 -8 -2 -13 3 -10 5 3 12 -1 15 -10 3 -8 2 -13 -2 -10 -5 3 -9 -1 -9 -9 0 -8
5 -13 11 -12 6 1 10 -3 9 -10 -2 -9 4 -10 23 -3 14 6 30 8 35 4 5 -3 12 2 15
11 6 13 8 14 15 3 6 -9 9 -5 9 14 0 15 -5 30 -11 33 -6 4 -8 13 -5 20 2 7 -1
18 -7 24 -8 8 -8 11 1 11 7 0 12 4 12 10 0 6 -5 9 -12 8 -7 -2 -12 2 -13 7 0
6 -4 16 -8 23 -5 7 -5 21 -2 32 4 11 2 20 -3 20 -14 0 -21 47 -8 60 8 8 7 11
-3 8 -9 -2 -15 9 -18 32 -3 19 -10 38 -16 42 -8 5 -7 8 3 8 12 0 13 2 1 9 -8
5 -10 14 -6 21 6 9 4 11 -5 5 -10 -6 -12 -4 -7 8 4 10 1 17 -6 17 -8 0 -6 4 3
10 10 6 11 10 3 10 -7 0 -13 11 -13 25 0 14 -4 25 -10 25 -5 0 -10 9 -10 20 0
15 -6 19 -30 17 -16 -1 -30 -5 -30 -8z"/>
<path d="M5230 7584 c-13 -16 -13 -17 0 -9 13 8 13 6 1 -8 -7 -9 -18 -14 -25
-10 -6 4 -5 0 2 -9 9 -12 10 -17 1 -20 -6 -2 -12 -15 -12 -30 -1 -14 -6 -26
-12 -25 -5 1 -9 -4 -7 -12 2 -8 -3 -18 -10 -22 -10 -6 -10 -9 -1 -9 7 0 10 -7
7 -15 -4 -8 -10 -12 -15 -9 -5 3 -6 -2 -3 -10 3 -9 1 -16 -6 -16 -6 0 -9 -4
-6 -9 4 -5 0 -12 -6 -14 -11 -4 -11 -6 0 -6 13 -1 12 -3 -22 -68 -9 -18 -14
-33 -10 -33 3 0 0 -8 -7 -17 -12 -14 -12 -16 1 -9 13 7 13 6 0 -6 -17 -15 -19
-36 -6 -57 7 -11 6 -12 -5 -6 -12 8 -12 6 0 -8 9 -11 10 -17 2 -17 -8 0 -8 -6
1 -20 7 -11 19 -20 26 -20 7 0 10 -4 7 -10 -3 -5 1 -10 10 -10 9 0 13 -4 10
-10 -4 -6 5 -10 20 -10 17 0 24 -4 19 -12 -5 -8 -2 -9 9 -5 9 3 19 2 22 -4 4
-5 10 -7 15 -4 4 3 10 -1 13 -9 4 -9 15 -12 33 -8 20 4 25 2 19 -8 -6 -10 -4
-12 8 -7 9 3 23 -1 32 -9 13 -14 15 -14 15 1 0 12 4 14 17 6 12 -6 21 -5 31 7
9 12 11 12 6 2 -7 -13 -6 -13 11 0 11 8 29 24 40 34 19 18 19 18 1 12 -16 -5
-17 -4 -6 9 7 8 16 13 20 10 5 -3 7 3 5 12 -1 10 3 24 9 32 9 12 8 13 -4 6
-13 -8 -13 -7 0 9 8 10 16 28 17 39 2 12 10 25 18 30 12 6 13 12 4 29 -9 17
-9 20 4 15 11 -4 13 0 9 15 -4 16 -2 19 9 13 12 -7 12 -6 1 7 -10 13 -10 19 3
32 9 9 13 21 9 27 -5 8 -3 9 6 4 10 -6 12 -3 7 14 -4 16 -2 21 7 18 7 -3 13 1
13 9 0 7 -5 11 -10 7 -5 -3 -1 7 9 22 21 32 27 58 11 48 -6 -4 -8 0 -4 10 4
11 2 14 -9 10 -7 -3 -14 0 -14 7 0 6 -4 8 -10 5 -5 -3 -10 -1 -10 4 0 6 -5 11
-11 11 -5 0 -7 -4 -4 -10 3 -6 -1 -7 -9 -4 -9 3 -13 10 -10 15 3 5 3 9 1 9 -3
0 -14 -16 -26 -36 -12 -19 -15 -32 -9 -28 10 6 10 4 2 -7 -6 -8 -14 -26 -18
-41 -3 -16 -11 -28 -17 -28 -6 0 -7 -5 -4 -10 4 -6 1 -17 -5 -25 -7 -8 -10
-22 -6 -30 3 -9 2 -13 -4 -10 -6 3 -10 -3 -10 -14 0 -11 -7 -27 -16 -35 -10
-10 -11 -16 -3 -16 9 0 8 -4 -1 -15 -7 -8 -9 -15 -4 -15 5 0 3 -4 -4 -9 -12
-7 -19 -27 -21 -59 -1 -7 -5 -10 -11 -7 -5 3 -10 0 -10 -7 0 -7 -11 -13 -24
-13 -13 0 -24 3 -23 7 1 3 -2 6 -7 6 -5 0 -13 6 -17 14 -7 10 -9 10 -9 0 0
-10 -5 -10 -20 -2 -12 6 -18 16 -14 23 5 9 4 9 -6 0 -10 -9 -16 -9 -26 2 -11
10 -11 20 -2 47 6 18 16 36 22 40 6 4 11 13 11 20 2 23 17 73 28 86 6 8 5 12
-4 12 -8 0 -4 7 8 15 12 9 20 21 17 29 -3 7 2 18 10 25 8 7 12 19 9 26 -3 8 5
30 17 49 16 27 19 40 11 53 -6 10 -11 14 -11 10 0 -5 -7 -1 -16 7 -8 9 -20 14
-25 11 -5 -4 -9 0 -9 7 0 10 -2 10 -9 -1 -6 -10 -10 -10 -13 -1 -2 8 -8 7 -18
-6z"/>
<path d="M2703 7437 c1 -6 -2 -11 -8 -12 -5 0 -24 -8 -41 -18 -17 -9 -34 -13
-38 -10 -3 4 -6 1 -6 -5 0 -7 -7 -12 -16 -12 -9 0 -12 -5 -8 -12 5 -8 0 -7
-11 2 -10 8 -16 10 -12 3 5 -8 -2 -15 -20 -19 -15 -4 -31 -12 -35 -17 -3 -6
-15 -11 -26 -12 -11 0 -27 -8 -36 -17 -17 -18 -23 -73 -6 -63 6 3 10 -3 10
-13 0 -11 9 -22 20 -25 12 -3 20 0 20 7 0 6 8 12 18 13 9 1 32 4 50 7 28 4 33
2 28 -10 -3 -8 -2 -12 3 -9 5 3 12 -4 16 -15 3 -11 11 -20 17 -20 7 0 7 -5 -1
-14 -9 -11 -8 -15 5 -20 9 -4 14 -9 11 -13 -4 -3 1 -12 11 -20 9 -8 11 -12 5
-8 -9 4 -11 1 -7 -9 3 -9 10 -13 15 -10 8 4 14 -25 10 -49 0 -4 5 -6 11 -5 7
2 12 -3 10 -9 -1 -7 4 -13 10 -13 9 0 8 -4 -2 -10 -13 -8 -12 -10 3 -10 9 0
16 -3 15 -7 -2 -11 14 -47 24 -54 5 -3 10 -15 11 -26 1 -14 6 -19 16 -15 9 3
12 1 7 -6 -10 -17 3 -15 21 3 8 8 19 13 24 10 5 -4 9 -1 9 5 0 6 4 9 9 6 5 -4
11 0 14 6 6 19 -13 69 -24 62 -5 -3 -6 1 -3 9 3 8 0 18 -5 22 -6 3 -9 11 -6
16 4 5 1 9 -5 9 -6 0 -8 5 -5 10 3 6 1 10 -4 10 -6 0 -11 9 -11 20 0 11 -5 20
-11 20 -5 0 -7 5 -4 10 3 6 -1 10 -9 10 -9 0 -13 7 -11 20 2 11 -1 20 -7 20
-6 0 -8 3 -5 7 4 3 -1 12 -11 20 -9 8 -11 12 -4 8 19 -10 14 2 -10 25 -12 11
-18 20 -14 20 5 0 3 6 -3 14 -6 7 -13 28 -15 45 -3 25 0 31 11 27 7 -3 16 1
19 9 5 12 10 12 27 3 12 -6 19 -7 14 -3 -4 5 -1 16 7 24 13 14 13 21 -1 51 -9
19 -17 36 -18 38 -7 9 -44 9 -42 -1z"/>
<path d="M5933 7269 c-18 -9 -30 -12 -27 -5 3 6 -1 3 -9 -7 -9 -10 -24 -25
-34 -34 -10 -8 -11 -11 -3 -7 14 7 -24 -43 -45 -58 -6 -5 -4 -8 4 -8 11 0 10
-4 -5 -16 -10 -8 -12 -12 -4 -9 8 4 3 -4 -12 -17 -15 -14 -24 -28 -20 -32 4
-4 -2 -14 -12 -22 -11 -8 -17 -14 -13 -14 5 0 2 -6 -5 -14 -7 -8 -17 -11 -23
-8 -5 3 -3 -3 5 -13 9 -11 10 -16 3 -11 -8 4 -13 2 -13 -7 0 -8 -8 -18 -17
-21 -15 -6 -15 -8 -3 -16 10 -7 11 -10 3 -10 -7 0 -13 -9 -13 -21 0 -11 -4
-18 -8 -15 -5 3 -9 -1 -9 -9 0 -8 4 -15 9 -15 5 0 6 -4 3 -10 -3 -5 -1 -10 4
-10 6 0 11 -7 11 -15 0 -20 73 -89 84 -78 3 4 6 1 6 -5 0 -7 7 -12 15 -12 8 0
15 -4 15 -10 0 -5 9 -10 21 -10 11 0 17 -4 14 -10 -3 -5 3 -10 14 -10 11 0 23
-5 26 -10 5 -8 11 -8 19 -1 9 7 16 7 24 -1 9 -9 12 -9 12 1 0 7 5 9 10 6 6 -3
10 -1 10 6 0 7 3 10 6 6 8 -7 34 17 34 32 0 5 7 14 15 18 8 5 16 18 18 29 1
12 15 36 30 53 15 18 27 39 27 47 0 9 4 12 10 9 6 -3 7 1 4 9 -3 9 -10 14 -14
11 -5 -3 -16 5 -24 17 -9 12 -16 17 -16 10 0 -13 -3 -11 -43 24 -25 22 -42 20
-64 -7 -28 -33 -28 -31 -3 -59 22 -26 26 -40 9 -40 -6 0 -9 -6 -6 -14 3 -8 -1
-20 -9 -26 -8 -7 -14 -9 -14 -4 0 5 -5 2 -10 -6 -6 -9 -10 -11 -10 -3 0 7 -6
10 -14 7 -8 -3 -23 3 -34 14 -11 11 -23 18 -26 14 -3 -3 -6 2 -6 10 0 11 -6
14 -19 11 -15 -4 -19 0 -16 14 1 10 8 17 15 15 6 -1 8 2 5 8 -4 6 0 19 8 28 9
9 17 22 19 27 2 6 6 9 10 8 4 -2 5 4 2 12 -4 8 1 17 10 21 9 3 16 13 16 21 0
9 5 11 13 7 7 -5 7 -2 -2 10 -8 9 -10 16 -5 15 5 -1 15 -1 23 0 11 1 11 4 1
17 -11 12 -11 15 1 12 8 -2 15 7 17 20 2 16 8 22 18 18 8 -3 12 -2 9 3 -3 5
-1 12 5 16 5 3 10 0 11 -7 0 -7 4 -4 9 7 5 11 9 14 9 7 1 -7 6 -10 11 -7 6 3
10 1 10 -4 0 -6 6 -10 13 -8 6 1 11 -3 10 -10 -2 -7 6 -10 18 -8 11 2 22 -2
26 -10 3 -8 11 -15 19 -15 8 0 14 -4 14 -10 0 -5 9 -10 20 -10 11 0 20 -5 20
-11 0 -5 5 -7 10 -4 6 3 10 1 10 -4 0 -6 4 -11 10 -11 6 0 9 6 8 13 -2 6 2 11
9 10 8 -2 10 4 6 14 -4 10 -2 14 4 10 6 -4 13 0 16 7 3 8 1 17 -6 20 -8 3 -7
5 2 5 10 1 7 7 -7 20 -12 10 -18 21 -15 25 4 4 0 4 -9 1 -8 -3 -22 1 -31 9 -8
8 -21 17 -28 18 -8 2 -21 11 -30 20 -8 9 -22 18 -29 20 -8 2 -23 11 -33 20
-11 9 -27 14 -36 10 -13 -5 -14 -3 -4 9 10 12 8 15 -10 15 -11 0 -36 -8 -54
-17z"/>
<path d="M2112 7103 c-6 -3 -9 -10 -5 -16 4 -7 0 -8 -11 -4 -10 4 -19 1 -22
-8 -4 -8 -10 -12 -15 -9 -5 3 -9 1 -9 -5 0 -5 -9 -13 -20 -16 -11 -4 -18 -11
-15 -16 4 -5 0 -9 -8 -9 -8 0 -18 -7 -21 -16 -3 -8 -10 -12 -16 -9 -5 3 -10
-2 -10 -12 0 -15 -2 -16 -10 -3 -8 13 -10 12 -10 -3 0 -10 -5 -15 -11 -12 -6
4 -13 -2 -16 -13 -3 -14 -10 -19 -21 -15 -10 4 -14 3 -10 -2 4 -4 2 -15 -5
-23 -9 -13 -9 -14 1 -8 8 5 12 0 12 -13 0 -13 7 -21 16 -21 10 0 14 -5 10 -16
-3 -8 -2 -12 3 -9 5 3 12 -4 16 -15 3 -11 11 -20 16 -20 6 0 7 -4 4 -10 -3 -5
2 -10 11 -10 10 0 15 -3 11 -6 -3 -4 4 -15 16 -26 12 -11 15 -17 7 -13 -10 4
-9 2 2 -8 10 -8 15 -17 11 -20 -3 -4 1 -7 10 -7 10 0 16 -3 16 -7 -3 -21 2
-33 14 -30 6 1 11 -4 9 -11 -1 -7 5 -15 13 -18 8 -4 15 -12 15 -20 0 -8 5 -14
10 -14 6 0 10 -7 10 -15 0 -8 7 -15 16 -15 8 0 12 -4 9 -10 -3 -5 -2 -10 2
-10 5 0 13 -10 18 -22 14 -32 54 -35 78 -6 10 12 15 16 11 8 -5 -10 0 -9 14 4
22 19 30 32 13 22 -5 -3 -12 1 -15 10 -3 8 -2 12 4 9 5 -3 7 1 4 9 -3 8 -14
18 -25 21 -10 4 -18 12 -16 18 1 7 -4 11 -12 9 -12 -3 -12 -1 -1 13 7 9 9 15
4 14 -24 -4 -36 2 -30 17 3 8 2 12 -4 9 -6 -3 -10 4 -10 15 0 16 5 20 15 16 8
-3 14 0 12 7 -1 7 4 11 11 10 6 -2 12 5 12 15 0 14 2 15 10 2 6 -10 10 -11 10
-2 0 6 7 12 16 12 8 0 12 -5 9 -11 -4 -6 0 -9 11 -7 11 2 18 -2 17 -9 -2 -7 0
-12 5 -12 19 3 33 -2 27 -11 -4 -6 1 -7 11 -3 13 5 16 2 12 -9 -4 -8 0 -15 8
-16 8 -1 21 -3 29 -4 8 -1 15 -5 15 -10 0 -13 27 -9 40 7 7 8 16 12 21 9 5 -3
9 2 9 10 0 9 8 16 18 17 10 0 12 3 4 6 -6 2 -10 9 -6 14 5 8 -8 12 -22 7 -3
-2 -12 8 -19 22 -8 14 -14 19 -15 13 0 -8 -8 -5 -20 7 -12 12 -25 18 -30 15
-6 -4 -10 1 -10 10 0 9 -4 14 -8 11 -16 -10 -52 25 -52 50 0 13 5 24 11 24 6
0 4 7 -5 15 -8 9 -12 23 -9 32 4 11 3 14 -5 9 -7 -4 -13 -1 -13 8 -1 9 -2 21
-3 26 -1 13 -74 80 -87 80 -6 0 -7 5 -4 10 3 6 -1 10 -10 10 -9 0 -13 5 -9 11
5 8 1 8 -13 0 -11 -5 -24 -6 -29 -2 -5 5 -15 6 -22 4z m159 -100 c13 -16 12
-17 -3 -4 -10 7 -18 15 -18 17 0 8 8 3 21 -13z m-123 -29 c-3 -3 4 -16 16 -29
40 -44 47 -55 36 -55 -7 0 -9 -8 -5 -21 5 -15 4 -19 -5 -14 -6 4 -18 -1 -26
-11 -9 -11 -13 -13 -9 -4 4 9 1 8 -8 -3 -19 -23 -57 -31 -57 -11 0 8 -7 17
-16 21 -8 3 -13 12 -10 19 3 8 1 13 -3 11 -5 -1 -10 3 -11 8 -1 6 -6 16 -12
23 -10 11 -4 16 15 13 4 0 7 4 7 11 0 6 3 9 6 5 3 -3 16 3 27 14 14 12 23 15
28 8 4 -7 8 -5 12 5 4 9 10 16 13 16 4 0 5 -3 2 -6z"/>
<path d="M6501 6902 c-1 -7 -12 -23 -26 -36 -13 -13 -22 -26 -18 -29 3 -4 -1
-7 -10 -7 -8 0 -19 -9 -22 -20 -4 -11 -11 -18 -16 -14 -6 3 -9 -2 -7 -12 2
-11 -2 -18 -9 -17 -7 2 -17 -6 -23 -17 -6 -12 -16 -18 -23 -14 -7 4 -9 3 -4
-1 9 -11 -22 -45 -42 -45 -13 0 -13 -2 -3 -9 10 -6 8 -10 -8 -14 -12 -3 -19
-10 -15 -16 3 -6 0 -11 -8 -11 -8 0 -18 -7 -21 -16 -3 -8 -11 -12 -16 -9 -6 4
-10 3 -9 -2 3 -19 -2 -34 -10 -28 -5 3 -12 1 -16 -5 -3 -5 0 -10 7 -11 9 0 8
-3 -3 -7 -8 -4 -22 -13 -30 -21 -13 -13 -12 -18 13 -43 15 -15 32 -28 39 -28
6 0 8 -7 5 -16 -5 -13 -4 -14 7 -6 8 7 17 9 20 5 4 -3 7 1 7 10 0 10 4 16 9
15 14 -4 51 43 44 56 -3 6 -3 8 1 4 5 -4 20 6 35 21 23 23 77 40 65 19 -3 -4
2 -8 10 -8 8 0 18 -5 22 -12 4 -7 3 -8 -4 -4 -8 5 -10 2 -6 -8 3 -9 10 -14 14
-13 5 1 16 -7 25 -18 9 -11 13 -14 9 -6 -5 9 -3 12 4 7 25 -15 1 -76 -29 -76
-11 0 -11 -2 1 -10 13 -9 13 -10 0 -11 -8 -1 -19 -1 -23 0 -5 1 -6 -3 -2 -9 3
-5 1 -10 -5 -10 -6 0 -8 -5 -4 -12 5 -8 2 -9 -12 -4 -10 4 -16 4 -12 1 3 -4
-2 -15 -13 -26 -16 -16 -18 -23 -8 -42 16 -28 35 -47 49 -47 6 0 8 -4 5 -10
-3 -5 -2 -10 4 -10 5 0 13 5 16 10 4 6 11 8 16 5 5 -4 9 0 9 7 0 8 7 23 16 34
8 10 13 12 9 4 -4 -8 2 -5 13 7 11 12 23 19 27 15 5 -4 6 0 3 9 -6 15 28 46
45 41 5 -1 6 2 3 7 -4 5 8 23 25 40 16 17 27 35 24 41 -4 6 -1 9 7 8 7 -2 12
3 10 10 -1 8 2 11 8 7 5 -3 15 5 22 19 6 14 18 26 25 26 8 0 12 3 10 8 -5 7
22 37 33 37 3 0 4 3 3 8 -2 4 3 7 11 7 13 0 26 19 32 48 1 6 -1 10 -6 7 -11
-7 -32 20 -23 29 4 4 0 4 -10 0 -11 -4 -17 -1 -17 8 0 8 -8 15 -17 15 -22 0
-45 -22 -35 -32 4 -5 -1 -5 -11 -2 -11 4 -16 3 -12 -4 8 -13 -14 -41 -26 -33
-5 3 -9 2 -8 -3 3 -18 -2 -33 -10 -30 -5 1 -16 -6 -23 -16 -13 -18 -54 -15
-43 3 3 5 -5 6 -17 3 -13 -3 -20 -3 -17 1 8 9 -29 50 -53 59 -15 5 -16 11 -7
37 6 16 15 30 21 30 5 0 6 6 2 13 -5 7 0 6 11 -3 11 -9 16 -10 11 -2 -4 7 -2
12 5 12 7 0 10 3 7 6 -8 7 42 60 53 57 4 -2 5 5 2 14 -4 10 -2 14 5 9 6 -3 14
-1 18 5 4 7 3 9 -4 5 -6 -3 -13 3 -17 14 -4 11 -11 17 -17 14 -8 -5 -9 -1 -4
11 5 15 4 16 -8 6 -11 -9 -16 -9 -22 0 -5 8 -3 9 7 4 12 -8 12 -6 0 9 -10 12
-16 14 -21 5 -6 -8 -9 -8 -13 2 -4 11 -6 11 -6 1z"/>
<path d="M6061 6826 c-9 -11 -9 -16 0 -22 7 -4 9 -3 5 4 -3 6 2 15 11 21 10 6
13 11 7 11 -6 0 -17 -6 -23 -14z"/>
<path d="M1599 6675 c-1 -3 -2 -8 -3 -12 -3 -18 -18 -33 -27 -27 -5 3 -9 2 -8
-3 3 -19 -2 -33 -11 -30 -6 1 -16 -9 -23 -23 -8 -14 -19 -24 -25 -22 -7 1 -11
-4 -10 -10 2 -7 -3 -12 -10 -10 -8 1 -11 -2 -7 -8 3 -5 1 -10 -5 -10 -6 0 -8
-5 -4 -12 5 -8 2 -9 -10 -5 -10 4 -15 3 -11 -3 3 -6 1 -10 -4 -10 -6 0 -11 -7
-11 -15 0 -8 -5 -15 -10 -15 -6 0 0 -11 12 -24 13 -13 26 -21 31 -19 4 2 7 -1
7 -7 0 -7 17 -28 38 -48 20 -20 36 -40 35 -44 -2 -4 5 -4 14 -1 13 5 15 2 10
-11 -4 -10 -3 -15 3 -11 5 3 21 -5 35 -19 14 -15 28 -26 31 -26 3 0 27 -22 54
-50 27 -27 53 -50 58 -50 5 0 16 -8 23 -17 13 -17 12 -17 -6 -3 -15 11 -17 11
-8 0 16 -17 53 -24 53 -9 0 6 7 8 16 5 8 -3 12 -2 9 3 -3 6 3 14 12 20 10 6
14 11 10 11 -5 0 7 15 26 34 20 19 33 37 30 40 -4 3 1 6 11 6 9 0 14 5 11 10
-3 6 -1 10 6 10 7 0 9 3 6 7 -4 3 6 16 22 27 15 12 30 26 32 31 2 6 8 9 12 7
5 -1 6 2 2 8 -3 5 -13 10 -22 10 -10 0 -13 5 -9 17 4 10 4 14 0 10 -4 -4 -13
1 -21 11 -10 12 -16 14 -19 4 -3 -6 -10 -10 -15 -6 -5 3 -8 2 -7 -3 3 -11 -72
-89 -84 -85 -5 1 -7 -1 -5 -5 6 -10 -14 -28 -30 -28 -7 0 -26 14 -42 32 -16
17 -32 29 -35 26 -9 -10 -7 4 5 31 8 16 17 22 27 19 10 -4 13 -2 8 5 -4 7 -2
12 5 12 7 0 9 3 6 6 -4 4 2 14 12 23 9 9 26 28 36 44 15 24 16 27 1 21 -9 -3
-16 -1 -16 6 0 6 -4 8 -10 5 -5 -3 -10 0 -10 9 0 19 -26 14 -46 -10 -8 -10
-12 -12 -8 -4 7 13 5 13 -9 1 -9 -7 -14 -17 -11 -22 3 -5 -3 -6 -12 -2 -13 5
-16 3 -11 -10 5 -12 -1 -19 -18 -23 -14 -3 -22 -10 -19 -15 3 -5 -2 -9 -11 -9
-23 0 -94 72 -77 77 6 3 12 11 12 19 0 9 5 12 10 9 6 -3 13 1 16 9 3 9 13 16
21 16 8 0 11 5 7 12 -5 8 -2 9 9 5 9 -3 16 -3 15 1 -3 14 14 42 22 37 5 -3 7
3 5 12 -2 10 -4 22 -4 27 -1 5 -4 6 -8 2 -4 -3 -13 6 -20 21 -7 16 -11 20 -8
11 2 -10 0 -18 -5 -18 -6 0 -10 7 -10 15 0 13 -28 22 -31 10z"/>
<path d="M7012 6343 c-12 -15 -22 -24 -22 -19 0 5 -12 -3 -26 -18 -15 -14 -33
-26 -40 -26 -8 0 -13 -6 -11 -12 1 -8 -6 -12 -17 -10 -10 2 -16 -1 -13 -5 3
-5 -3 -15 -15 -22 -15 -9 -18 -10 -13 0 6 8 4 10 -4 5 -7 -5 -10 -14 -7 -22 3
-8 0 -11 -9 -7 -8 3 -18 -2 -21 -11 -3 -9 -10 -14 -15 -11 -4 3 -13 -4 -19
-15 -8 -15 -17 -19 -33 -15 -17 5 -19 4 -7 -4 15 -10 14 -12 -12 -15 -7 -1
-12 -8 -10 -16 3 -11 0 -11 -14 1 -11 8 -15 9 -11 2 5 -8 -5 -21 -27 -35 -38
-25 -49 -64 -20 -75 8 -3 13 -12 10 -20 -3 -8 -2 -12 3 -8 5 3 11 1 13 -5 2
-6 13 -12 25 -14 13 -3 22 -2 20 2 -1 4 1 8 6 9 4 2 19 15 32 29 14 15 28 24
31 21 9 -9 33 16 26 28 -3 6 -2 7 3 3 4 -4 15 -2 23 5 13 10 14 9 7 -3 -8 -13
-7 -13 8 -1 15 12 21 9 18 -11 0 -4 8 -10 19 -13 11 -4 20 -14 20 -23 0 -10 9
-24 20 -32 11 -8 20 -20 20 -26 0 -7 8 -10 20 -7 11 3 17 10 13 17 -4 6 2 4
13 -4 10 -8 16 -10 11 -5 -4 4 3 19 15 33 13 13 19 22 13 20 -5 -2 -11 2 -13
7 -2 6 -10 14 -18 18 -8 4 -14 15 -14 22 0 8 -5 15 -12 15 -6 0 -8 3 -5 7 4 3
-2 12 -13 20 -26 18 -25 26 5 59 14 15 25 23 25 19 0 -4 8 1 18 12 17 21 17
21 42 -9 14 -16 30 -35 37 -42 7 -8 11 -15 9 -17 -2 -2 10 -17 26 -33 15 -16
28 -24 28 -17 0 6 5 11 11 11 5 0 7 -5 3 -12 -4 -7 -3 -8 5 -4 6 4 9 11 7 15
-3 4 6 14 19 21 21 11 23 16 12 29 -9 12 -9 13 0 7 9 -5 11 -2 7 8 -3 9 -10
13 -15 10 -8 -5 -13 9 -10 29 0 4 -5 7 -13 7 -8 0 -18 5 -22 12 -5 7 -3 8 5 3
10 -5 9 -2 0 13 -7 12 -17 18 -23 15 -5 -4 -7 1 -3 10 3 9 1 19 -5 23 -7 5 -8
2 -3 -6 5 -9 4 -11 -3 -6 -7 4 -12 14 -12 22 0 8 -4 12 -10 9 -6 -3 -7 1 -4 9
4 10 1 16 -9 16 -16 0 -30 26 -22 40 3 4 -5 6 -17 3 -19 -4 -20 -3 -8 6 8 6
10 11 4 11 -5 0 -20 -12 -32 -27z"/>
<path d="M1203 6183 c-12 -13 -19 -23 -15 -23 4 0 0 -5 -8 -10 -8 -5 -15 -13
-16 -17 -2 -21 -17 -42 -25 -37 -5 3 -8 2 -7 -3 4 -14 -13 -53 -23 -53 -6 0
-7 -4 -4 -10 3 -5 0 -10 -7 -10 -9 0 -9 -3 2 -10 9 -6 11 -13 5 -17 -14 -11
-17 -33 -5 -33 5 0 7 -7 4 -15 -4 -8 -1 -15 7 -15 7 0 9 -3 6 -6 -7 -8 36 -44
52 -44 6 0 11 -7 11 -16 0 -8 4 -13 9 -10 5 3 25 -7 44 -23 20 -15 50 -34 67
-41 16 -7 30 -20 31 -29 0 -11 2 -12 6 -3 4 9 10 7 22 -7 10 -12 21 -18 25
-14 3 3 6 1 6 -6 0 -7 4 -10 9 -7 4 3 16 -1 27 -8 10 -8 25 -11 33 -8 10 4 12
1 7 -9 -4 -8 -1 -6 7 4 9 10 18 18 21 18 21 -3 26 0 20 11 -5 8 -2 9 10 5 10
-4 15 -3 11 3 -3 6 -1 10 5 10 6 0 8 5 5 10 -3 6 1 10 10 10 11 0 15 5 11 16
-3 8 -2 12 3 9 5 -3 12 4 16 15 3 11 11 20 17 20 5 0 8 7 4 15 -3 9 0 15 8 15
7 0 19 18 26 39 11 35 11 42 -4 56 -9 9 -16 13 -16 8 0 -4 -4 -2 -9 6 -5 8
-17 16 -25 17 -9 1 -14 -1 -11 -6 2 -4 -4 -18 -15 -30 -11 -13 -20 -27 -20
-32 0 -5 -4 -6 -10 -3 -5 3 -7 0 -4 -8 3 -8 0 -18 -5 -22 -6 -3 -8 -11 -5 -17
5 -8 1 -9 -10 -5 -14 5 -17 3 -12 -8 3 -8 2 -15 -2 -16 -4 0 -15 -2 -24 -4
-10 -2 -18 1 -18 6 0 5 -6 8 -12 7 -7 -2 -12 3 -10 11 2 8 -3 11 -13 8 -8 -4
-15 -1 -15 5 0 6 -3 8 -6 5 -4 -4 -15 3 -25 14 -9 11 -19 20 -21 19 -7 -4 -58
24 -58 32 0 4 -5 8 -11 8 -26 0 -69 42 -67 65 1 13 6 21 10 19 4 -3 8 2 8 10
0 9 5 16 10 16 6 0 10 9 10 21 0 11 5 17 10 14 6 -3 10 1 10 10 0 8 7 18 16
22 13 5 13 7 2 14 -10 7 -10 9 0 9 20 0 14 17 -9 23 -12 3 -18 10 -14 16 4 7
0 8 -10 4 -10 -3 -20 -2 -24 3 -3 5 -16 -1 -28 -13z"/>
<path d="M7365 5850 c-3 -5 -15 -10 -26 -10 -13 0 -18 -4 -13 -12 5 -8 2 -9
-9 -5 -10 3 -17 3 -17 -2 0 -5 -11 -12 -25 -15 -14 -4 -23 -11 -20 -16 3 -6
-1 -7 -9 -4 -9 3 -16 1 -16 -5 0 -7 -6 -11 -12 -10 -21 3 -48 -12 -41 -24 3
-6 1 -7 -6 -3 -6 4 -18 2 -26 -4 -8 -6 -20 -8 -26 -4 -7 4 -9 3 -6 -3 3 -5 -8
-18 -25 -28 -22 -13 -29 -14 -24 -4 4 8 0 5 -8 -5 -9 -11 -16 -16 -16 -12 0 5
-7 3 -15 -4 -8 -6 -19 -9 -25 -5 -6 4 -9 1 -8 -6 2 -7 -2 -13 -9 -14 -6 0 -15
-3 -19 -7 -4 -5 -15 -8 -25 -8 -12 0 -16 -5 -13 -14 3 -8 1 -17 -5 -20 -12 -8
6 -56 21 -56 5 0 6 -4 3 -10 -3 -5 0 -10 7 -10 9 0 9 -3 -2 -10 -13 -8 -12
-10 3 -10 10 0 15 -4 12 -10 -3 -5 -2 -10 4 -10 6 0 7 -7 4 -17 -4 -10 -2 -14
4 -10 6 4 14 0 17 -9 4 -9 2 -13 -5 -8 -13 8 21 -48 36 -58 6 -5 6 -8 0 -8 -5
0 -2 -5 7 -11 12 -7 24 -7 37 0 10 6 21 7 25 4 3 -3 6 1 6 10 0 9 5 17 11 17
5 0 7 -5 3 -12 -4 -6 -3 -8 4 -5 7 5 7 14 -1 31 -7 13 -15 22 -19 20 -4 -3 -5
1 -2 9 3 8 -1 21 -8 28 -7 8 -13 20 -14 27 -2 29 -5 33 -15 26 -8 -4 -9 1 -4
16 5 15 4 20 -4 16 -6 -4 -11 -5 -11 -2 0 2 13 11 30 19 21 11 30 12 34 3 2
-6 5 -3 5 8 1 12 6 16 17 12 8 -3 13 -2 10 3 -3 4 5 13 19 19 18 8 25 8 29 -1
2 -7 5 -4 5 6 1 16 5 18 39 21 7 1 16 7 21 14 4 7 17 14 29 15 11 0 19 4 17 8
-7 10 45 30 57 23 6 -4 8 -2 4 4 -3 6 -2 13 4 17 5 3 10 0 10 -7 0 -7 11 0 25
16 14 16 25 36 25 45 0 14 -2 14 -10 1 -9 -13 -10 -13 -10 1 0 8 5 20 11 26 8
8 7 13 -2 18 -8 5 -10 4 -5 -3 4 -7 2 -12 -3 -12 -6 0 -11 7 -11 16 0 9 -5 12
-12 8 -8 -5 -9 -2 -5 9 7 19 2 23 -8 7z"/>
<path d="M5705 5746 c-42 -19 -91 -79 -99 -120 -4 -20 -11 -38 -15 -41 -15 -9
-40 6 -47 27 -3 11 -25 29 -49 39 -34 15 -48 17 -73 8 -31 -11 -103 -95 -116
-136 -4 -12 -13 -26 -21 -33 -8 -6 -11 -18 -8 -26 8 -22 -19 -17 -47 9 -14 12
-32 24 -40 26 -33 10 -83 0 -121 -24 -43 -27 -109 -122 -114 -161 -1 -14 -9
-32 -18 -42 -19 -21 -39 -127 -37 -198 0 -28 -4 -73 -10 -100 -7 -27 -12 -65
-12 -85 1 -32 -4 -38 -38 -55 -30 -15 -44 -31 -61 -69 -12 -27 -28 -62 -35
-77 -8 -14 -14 -41 -14 -60 0 -18 -4 -47 -8 -63 -5 -17 -5 -41 -2 -55 6 -21 9
-16 15 28 4 29 12 55 16 58 5 3 9 14 9 24 0 10 5 31 12 47 6 15 11 31 10 36
-1 4 3 7 10 7 6 0 8 3 5 7 -4 3 2 13 14 21 11 8 18 20 15 27 -6 16 36 36 53
25 7 -4 11 -20 10 -36 -2 -16 2 -37 7 -47 9 -16 12 -17 23 -3 10 12 10 16 1
16 -9 0 -11 51 -8 213 3 165 7 211 17 209 8 -2 10 4 6 18 -4 11 -2 20 4 20 6
0 8 7 5 15 -4 8 -2 15 4 15 6 0 8 9 5 20 -3 12 0 20 6 20 7 0 9 5 6 10 -3 6
-1 10 5 10 6 0 8 5 5 10 -3 6 -1 10 5 10 6 0 9 4 5 9 -3 5 -1 12 5 16 6 4 8
10 5 15 -3 4 2 11 11 14 9 4 14 9 10 13 -3 3 3 13 14 20 11 8 18 19 15 24 -4
5 -1 9 6 9 7 0 21 8 31 17 12 10 37 17 68 17 43 1 53 -3 84 -33 19 -19 42 -49
51 -67 34 -73 52 -50 20 26 -23 54 -23 55 -4 73 11 10 17 22 14 28 -4 5 -2 9
4 9 9 0 15 12 23 45 4 12 54 55 88 74 16 9 25 10 28 3 2 -6 9 -9 17 -6 17 7
75 -45 79 -71 2 -11 0 -25 -5 -31 -5 -6 -3 -18 5 -29 12 -16 16 -17 29 -6 9 7
13 19 10 27 -3 8 -1 14 5 14 6 0 8 9 5 20 -3 11 -1 20 3 20 5 0 10 12 11 27 0
15 6 29 12 31 6 2 8 8 5 13 -3 6 13 28 35 50 57 53 90 53 142 -2 33 -35 39
-48 39 -85 0 -32 4 -44 15 -44 13 0 17 6 14 26 0 4 4 10 9 13 6 3 12 13 14 21
2 8 9 21 16 29 7 7 11 19 8 26 -2 7 13 22 35 34 48 27 93 23 126 -13 25 -28
65 -120 56 -130 -4 -3 -1 -6 6 -6 8 0 11 -8 8 -20 -3 -11 -2 -22 3 -25 4 -3
13 -35 20 -72 18 -102 19 -105 41 -98 14 5 22 0 30 -22 6 -15 16 -35 23 -43 7
-8 23 -55 34 -105 17 -71 21 -115 18 -205 -4 -125 -14 -200 -27 -200 -5 0 -6
-7 -3 -15 4 -8 -6 -37 -20 -65 -28 -53 -34 -90 -13 -90 16 1 50 48 42 60 -3 6
-2 10 4 10 6 0 8 7 5 15 -4 9 0 15 10 15 8 0 18 -10 20 -22 16 -81 30 -254 21
-275 -3 -10 -8 -50 -11 -90 -4 -78 -51 -231 -81 -267 -39 -46 -66 -67 -80 -62
-8 3 -17 6 -19 6 -10 0 -3 69 9 73 7 3 4 6 -7 6 -14 1 -17 7 -14 26 3 14 1 25
-5 25 -5 0 -7 14 -5 30 3 17 1 30 -4 30 -5 0 -6 5 -3 10 3 6 1 10 -5 10 -7 0
-10 7 -6 15 3 8 1 15 -4 15 -5 0 -7 7 -4 15 4 8 1 15 -6 15 -7 0 -10 7 -6 16
4 10 -6 27 -26 47 -17 18 -31 33 -30 34 6 11 -14 33 -29 33 -26 0 -25 -38 1
-65 46 -46 101 -157 86 -172 -3 -4 0 -13 6 -21 12 -13 29 -328 19 -338 -2 -2
-6 -21 -8 -42 -2 -20 -6 -44 -10 -52 -3 -8 -7 -31 -10 -50 -2 -19 -13 -47 -24
-62 -10 -15 -24 -39 -29 -54 -6 -14 -19 -28 -29 -31 -11 -3 -22 -11 -25 -19
-7 -19 -90 -19 -110 1 -8 8 -20 15 -26 15 -8 0 -11 22 -9 65 1 36 0 67 -3 70
-14 14 -31 -33 -36 -98 -2 -39 -8 -76 -11 -82 -4 -5 -8 -26 -10 -45 -3 -53
-29 -136 -46 -150 -8 -7 -15 -18 -15 -26 0 -7 -17 -32 -38 -55 -32 -34 -47
-42 -85 -46 -63 -7 -89 1 -134 42 -21 19 -41 35 -45 35 -4 0 -5 7 -2 15 4 8 1
15 -6 15 -7 0 -10 6 -7 14 3 8 -1 20 -8 26 -8 7 -12 16 -9 21 3 5 0 9 -6 9 -6
0 -9 4 -5 9 3 5 -2 17 -11 26 -10 10 -15 27 -12 46 3 16 1 32 -4 35 -5 3 -6
10 -2 15 8 13 -16 40 -28 33 -6 -4 -7 -27 -3 -55 6 -46 5 -50 -32 -89 -23 -25
-49 -42 -66 -44 -15 -1 -30 -5 -33 -9 -8 -7 -65 3 -80 14 -6 5 -13 6 -16 3 -3
-3 -28 17 -56 45 -27 27 -47 52 -44 55 3 3 0 6 -7 6 -7 0 -10 4 -6 9 3 5 -2
16 -11 25 -8 9 -13 20 -10 25 4 5 -1 16 -10 25 -19 20 -10 52 16 59 17 4 43
46 35 55 -2 2 -21 -2 -43 -9 -38 -11 -43 -10 -71 14 -17 14 -36 27 -43 30 -10
4 -10 7 1 15 11 8 9 11 -8 17 -14 4 -20 12 -17 21 3 8 0 14 -5 14 -7 0 -9 11
-7 25 3 14 1 25 -4 25 -6 0 -8 7 -5 15 4 8 1 17 -4 21 -6 3 -9 15 -6 25 3 11
1 19 -5 19 -7 0 -8 36 -5 103 6 118 12 158 27 187 13 23 23 25 42 6 12 -11 18
-11 37 5 13 11 17 19 10 19 -7 0 -9 3 -6 7 8 8 -47 43 -68 43 -9 0 -12 6 -9
15 4 10 0 15 -11 15 -9 0 -13 5 -10 10 3 6 1 10 -5 10 -6 0 -8 5 -5 10 3 6 1
10 -5 10 -7 0 -10 7 -6 15 3 8 1 15 -5 15 -6 0 -9 7 -6 15 4 8 1 17 -4 21 -6
3 -9 15 -6 25 3 11 -1 26 -9 34 -8 7 -15 36 -17 64 -1 28 -5 51 -9 51 -8 0
-13 -63 -8 -85 1 -5 5 -30 7 -55 3 -25 14 -63 24 -86 10 -22 19 -47 19 -56 0
-9 6 -21 14 -27 15 -13 14 -49 -3 -92 -10 -29 -25 -153 -24 -209 2 -65 22
-162 43 -202 11 -21 20 -47 20 -57 0 -10 9 -28 20 -41 11 -13 20 -26 20 -29 0
-4 10 -11 22 -16 24 -11 23 -9 75 -130 46 -107 96 -165 145 -165 17 0 40 -8
50 -17 20 -18 88 -26 88 -11 0 4 7 8 15 8 9 0 35 18 59 40 47 43 56 48 56 26
0 -22 66 -148 89 -171 11 -11 30 -29 41 -39 11 -11 32 -21 46 -22 15 -2 30 -8
34 -15 6 -8 9 -8 14 0 4 6 15 11 24 11 24 0 122 72 117 87 -2 6 3 14 11 17 9
3 13 10 10 15 -3 5 1 12 10 15 8 3 13 10 10 15 -3 5 1 11 9 15 8 3 12 12 9 19
-3 8 4 38 15 68 12 30 21 62 21 72 0 9 5 17 11 17 6 0 9 7 5 15 -4 11 1 15 19
15 13 0 26 -4 30 -9 3 -5 18 -12 35 -16 38 -8 115 35 137 79 8 17 21 38 28 46
30 38 64 170 70 276 4 63 8 79 27 94 13 11 29 19 36 20 6 0 12 6 12 14 0 8 13
29 30 47 34 38 78 141 87 205 3 24 9 44 12 44 4 0 7 8 8 18 17 196 21 322 9
322 -4 0 -6 14 -4 30 3 17 0 30 -5 30 -5 0 -7 7 -3 15 3 8 2 15 -3 15 -5 0 -7
11 -6 25 2 14 -1 25 -7 25 -6 0 -8 9 -5 20 3 11 0 20 -5 20 -7 0 -8 29 -4 88
11 131 12 262 2 262 -4 0 -6 18 -4 40 2 22 -1 42 -7 44 -6 3 -4 9 5 15 13 9
12 11 -4 11 -12 0 -16 5 -12 15 3 8 1 15 -5 15 -6 0 -9 7 -5 15 3 8 1 15 -5
15 -6 0 -9 7 -5 15 3 8 0 15 -6 15 -6 0 -8 3 -5 6 4 4 -5 20 -18 36 -14 16
-23 33 -20 38 3 5 -7 18 -21 29 -18 14 -25 27 -21 41 3 11 1 23 -4 26 -5 3 -7
10 -4 15 4 5 1 9 -5 9 -7 0 -10 7 -6 15 3 8 1 15 -5 15 -6 0 -8 9 -4 21 5 16
4 19 -6 14 -9 -6 -11 -3 -6 8 4 10 2 17 -4 17 -6 0 -9 9 -6 20 3 11 1 20 -5
20 -6 0 -7 7 -4 15 3 9 -1 18 -9 21 -8 4 -12 10 -9 15 3 5 1 9 -5 9 -6 0 -8 6
-6 13 5 11 -49 53 -89 70 -19 7 -74 -8 -86 -24 -32 -42 -74 -81 -78 -71 -2 7
-8 10 -13 6 -5 -3 -8 -1 -7 4 4 14 -60 82 -76 82 -8 0 -20 2 -28 5 -7 2 -26
-2 -43 -9z"/>
<path d="M888 5631 c4 -10 1 -12 -8 -6 -10 6 -12 4 -7 -8 3 -10 2 -17 -3 -17
-5 0 -6 -7 -3 -17 5 -11 3 -14 -6 -8 -10 6 -11 3 -2 -14 12 -22 27 -30 16 -8
-4 6 0 4 8 -6 9 -10 18 -17 21 -16 17 5 67 -12 61 -21 -3 -6 1 -7 10 -4 9 4
24 -1 35 -11 11 -10 26 -15 34 -12 8 3 16 1 18 -4 2 -5 13 -11 25 -12 12 0 19
-5 17 -9 -3 -4 4 -8 15 -8 26 0 27 -16 4 -29 -13 -7 -23 -5 -36 7 -17 15 -17
15 -11 -1 7 -19 -15 -21 -27 -3 -4 5 -10 -1 -14 -13 -5 -17 -10 -19 -20 -11
-16 13 -47 2 -38 -14 4 -6 0 -6 -9 2 -10 8 -19 9 -22 3 -4 -5 -15 -8 -26 -6
-11 2 -20 -1 -20 -7 0 -5 -7 -8 -15 -4 -8 3 -15 0 -15 -7 0 -8 -4 -6 -10 3 -5
8 -10 10 -10 4 0 -15 -40 -26 -40 -11 0 8 -4 7 -9 -2 -5 -7 -14 -10 -20 -7 -6
4 -11 4 -10 -1 4 -21 -2 -34 -13 -27 -7 5 -8 3 -3 -6 4 -7 2 -15 -4 -20 -9 -5
-9 -11 3 -22 8 -9 13 -17 11 -20 -2 -2 5 -5 17 -5 12 -1 24 -6 27 -10 3 -4 15
-10 26 -11 11 -2 25 -8 31 -13 7 -6 22 -12 34 -14 13 -2 32 -12 43 -22 14 -13
18 -13 12 -3 -8 13 -7 13 8 1 9 -7 17 -10 17 -5 0 5 4 4 8 -3 4 -6 20 -14 36
-17 15 -3 33 -10 40 -15 7 -6 16 -8 19 -4 4 3 7 1 7 -6 0 -7 5 -9 12 -5 6 4
17 -1 25 -11 9 -13 13 -14 13 -5 0 9 5 8 16 -6 8 -10 13 -14 10 -7 -5 8 0 8
18 0 13 -7 22 -16 19 -20 -3 -5 6 -2 20 8 17 11 24 22 20 32 -5 11 -3 14 6 8
11 -6 11 -3 0 16 -11 21 -10 22 2 12 12 -10 15 -8 15 7 0 10 -11 24 -24 29
-14 7 -21 7 -17 1 3 -6 -1 -7 -9 -4 -9 3 -14 10 -11 14 3 4 -8 7 -24 6 -17 -1
-28 0 -26 3 1 4 -3 12 -11 19 -10 9 -14 10 -14 1 0 -7 -9 -4 -22 7 -12 10 -18
13 -14 6 6 -10 2 -10 -18 -1 -14 7 -23 16 -19 22 3 6 2 7 -4 4 -5 -3 -21 0
-36 8 -14 7 -28 11 -31 9 -3 -2 -3 -1 0 4 5 7 9 8 35 11 5 0 8 5 4 10 -3 6 6
6 25 1 17 -5 28 -5 25 0 -3 4 2 10 10 14 8 3 15 1 15 -5 0 -6 7 -6 20 1 11 6
24 8 29 5 5 -3 12 1 14 7 4 10 6 10 6 -1 1 -8 9 -5 22 10 11 13 18 19 15 13
-3 -7 5 -11 23 -10 16 1 27 5 24 10 -3 4 4 5 16 1 12 -3 21 -2 21 3 0 6 11 9
25 8 13 -2 22 1 19 5 -3 5 2 9 11 9 9 0 14 4 10 9 -3 5 0 13 6 16 5 4 8 13 5
21 -3 8 0 14 6 14 7 0 7 4 -1 13 -6 8 -8 16 -6 19 3 3 -6 4 -20 2 -16 -1 -28
3 -32 12 -3 8 -8 12 -12 10 -13 -8 -52 14 -45 25 5 8 3 9 -7 3 -23 -14 -36
-13 -56 5 -10 9 -27 18 -38 19 -11 2 -23 9 -27 15 -4 7 -8 8 -8 3 0 -5 -10 -1
-22 10 -12 10 -18 13 -13 5 5 -8 -7 -4 -25 9 -18 13 -30 17 -25 9 7 -10 2 -9
-18 4 -15 10 -27 13 -27 7 0 -6 -5 -8 -10 -5 -6 4 -8 11 -5 16 4 5 -5 9 -19 9
-14 0 -26 4 -26 10 0 5 -11 9 -24 8 -16 -2 -22 -7 -18 -17z"/>
<path d="M4782 5554 c-12 -8 -31 -33 -42 -54 -11 -21 -23 -40 -28 -42 -16 -6
-73 -150 -67 -169 12 -36 35 -19 67 49 18 37 49 92 69 122 45 69 51 86 35 99
-9 7 -19 6 -34 -5z"/>
<path d="M3707 5523 c-4 -3 -7 -14 -7 -23 0 -22 210 -232 226 -226 7 3 14 17
16 33 3 24 -11 42 -97 125 -92 90 -120 109 -138 91z"/>
<path d="M3862 5498 c-21 -21 -13 -37 38 -74 28 -20 50 -40 50 -45 0 -5 5 -9
10 -9 6 0 23 -11 38 -25 33 -31 60 -32 72 -2 10 25 -13 50 -118 125 -65 46
-72 48 -90 30z"/>
<path d="M3020 5473 c-78 -7 -99 -15 -146 -58 -27 -25 -52 -45 -56 -45 -5 0
-8 -7 -8 -15 0 -8 -9 -15 -20 -15 -11 0 -20 4 -20 8 0 10 -35 27 -100 49 -38
13 -53 14 -95 3 -72 -18 -93 -31 -155 -94 -57 -58 -81 -67 -111 -40 -13 12
-41 16 -111 17 -85 1 -98 -1 -148 -28 -70 -37 -103 -67 -147 -132 -46 -70 -69
-133 -78 -217 -8 -79 -13 -98 -25 -91 -5 3 -11 1 -15 -5 -3 -5 -13 -10 -20
-10 -24 0 -93 -53 -122 -95 -43 -59 -65 -127 -62 -187 1 -29 5 -57 9 -63 4 -5
13 -26 19 -46 6 -20 21 -45 31 -54 11 -10 20 -24 20 -32 0 -7 3 -13 8 -13 4 0
13 -4 20 -9 11 -7 11 -15 -2 -45 -8 -20 -20 -63 -27 -96 -14 -73 1 -163 38
-216 12 -19 23 -37 23 -39 0 -12 65 -66 86 -71 13 -3 27 -10 30 -15 3 -5 13
-9 22 -9 9 0 23 -13 30 -30 17 -38 100 -130 117 -130 8 0 18 -6 22 -13 13 -20
53 -37 122 -50 51 -11 77 -11 135 -1 99 18 126 25 126 34 0 4 16 15 36 25 37
17 64 9 64 -20 0 -25 109 -113 168 -135 47 -18 71 -21 142 -17 100 5 150 27
222 95 46 43 58 60 90 122 13 25 46 60 57 60 4 0 17 -7 29 -16 17 -12 39 -15
85 -11 62 4 70 6 117 22 72 24 190 187 190 263 0 55 15 77 62 91 23 7 57 23
73 36 45 34 105 98 105 112 0 7 4 13 9 13 8 0 27 40 22 48 -1 1 6 16 14 32 23
44 40 230 21 230 -4 0 -6 14 -4 30 3 17 1 30 -4 30 -5 0 -6 5 -3 10 3 6 2 10
-4 10 -6 0 -8 7 -5 15 4 8 1 15 -5 15 -7 0 -11 6 -10 13 3 26 -2 37 -16 37
-19 0 -19 4 2 71 18 59 23 139 9 139 -4 0 -6 9 -3 20 3 11 1 23 -4 26 -5 3 -7
10 -4 15 4 5 1 9 -5 9 -7 0 -10 7 -6 15 3 9 -3 24 -12 33 -10 10 -17 23 -15
29 2 6 -5 14 -17 18 -11 3 -18 10 -16 14 3 4 2 12 -2 17 -9 14 -98 74 -110 74
-5 0 -9 7 -10 15 -1 8 -3 22 -4 30 -1 8 -5 15 -10 15 -5 0 -7 4 -3 9 3 5 -4
16 -15 24 -11 7 -17 17 -13 20 3 4 1 7 -6 7 -7 0 -10 4 -6 9 6 11 -69 85 -115
113 -22 13 -49 18 -93 17 -72 -1 -114 -14 -154 -49 -47 -42 -50 -43 -90 -8
-49 43 -99 64 -143 61z m44 -53 c13 0 32 -8 44 -17 11 -10 30 -25 41 -33 12
-8 21 -24 21 -37 0 -12 5 -25 10 -28 13 -8 42 14 34 26 -3 5 -2 9 3 9 4 0 26
16 48 35 22 19 44 36 50 36 5 1 21 4 35 6 60 11 130 3 157 -17 37 -28 103
-106 103 -122 0 -9 4 -19 9 -22 4 -3 16 -30 25 -61 16 -49 20 -54 41 -49 18 4
34 -5 74 -45 41 -41 54 -63 72 -121 14 -47 19 -83 15 -108 -3 -20 -6 -47 -6
-59 0 -24 -34 -98 -57 -123 -57 -63 -63 -77 -36 -87 11 -5 27 5 50 32 18 21
30 42 27 46 -3 5 2 9 10 9 9 0 16 -6 16 -14 0 -7 6 -19 14 -25 28 -24 38 -191
15 -273 -33 -126 -135 -229 -227 -233 -30 -2 -33 1 -29 22 2 13 0 23 -4 23 -5
0 -9 14 -9 30 0 17 -5 30 -11 30 -5 0 -7 5 -4 10 3 6 1 10 -5 10 -7 0 -10 7
-6 15 3 8 -3 20 -14 28 -11 8 -18 16 -15 19 3 3 -14 25 -37 49 -42 43 -110 83
-122 72 -9 -9 -7 -53 2 -51 13 4 66 -29 96 -58 37 -37 77 -107 85 -147 3 -18
5 -73 5 -123 -2 -75 -6 -99 -27 -140 -39 -77 -139 -166 -167 -149 -6 3 -10 1
-10 -4 0 -15 -113 -14 -162 1 -38 11 -39 13 -37 53 5 77 -25 85 -37 10 -3 -25
-10 -48 -15 -50 -4 -3 -6 -12 -3 -19 7 -17 -33 -106 -46 -106 -6 0 -10 -6 -10
-14 0 -15 -7 -23 -58 -68 -88 -77 -223 -97 -337 -48 -44 19 -148 104 -138 114
3 3 -2 8 -11 12 -9 3 -14 10 -11 14 3 4 -2 13 -11 20 -12 11 -12 15 -2 21 10
7 8 9 -5 9 -10 0 -15 5 -12 10 3 6 1 10 -4 10 -6 0 -10 5 -9 11 2 6 -3 14 -9
16 -19 7 -28 -27 -14 -49 6 -10 9 -23 6 -29 -8 -11 -101 -60 -112 -57 -5 0
-16 -2 -26 -7 -10 -4 -57 -5 -105 -3 -74 4 -96 9 -149 38 -56 29 -135 101
-140 127 -1 6 15 15 36 22 82 24 74 61 -9 41 -27 -6 -59 -8 -72 -4 -13 4 -23
6 -23 4 0 -2 -18 6 -40 17 -36 19 -105 83 -89 83 4 0 0 8 -9 18 -10 10 -14 22
-10 25 3 4 1 7 -6 7 -9 0 -12 9 -9 25 3 14 2 25 -1 25 -24 0 1 156 29 182 18
17 27 19 61 10 32 -8 43 -7 54 5 18 18 11 33 -16 33 -10 0 -19 4 -19 10 0 5
-7 7 -15 4 -8 -3 -29 3 -47 14 -39 24 -98 89 -89 97 3 4 -2 13 -13 20 -10 8
-15 18 -11 24 3 6 1 11 -4 11 -7 0 -11 22 -11 52 0 59 44 165 73 174 9 3 17 9
17 14 0 15 72 48 103 48 23 0 27 -5 27 -28 0 -31 27 -62 34 -39 2 8 7 22 10
31 3 10 1 20 -5 23 -5 4 -7 11 -4 16 4 5 1 9 -4 9 -7 0 -11 30 -11 80 0 52 4
80 11 80 6 0 9 7 5 15 -3 8 -1 15 4 15 5 0 7 7 4 15 -4 8 -1 15 5 15 6 0 8 7
4 16 -3 8 4 25 16 38 12 12 19 25 16 28 -9 9 78 98 129 131 46 29 56 32 136
32 94 0 117 -8 185 -61 36 -28 75 -41 75 -24 0 4 -11 17 -25 30 -14 13 -25 27
-25 32 0 16 85 100 120 118 72 37 167 38 206 1 11 -9 25 -16 32 -13 12 4 14
-2 16 -48 1 -16 8 -26 21 -28 11 -2 17 -1 13 3 -4 4 0 14 8 22 8 8 12 19 9 24
-4 5 -1 9 6 9 7 0 10 2 7 5 -7 7 52 75 65 75 5 0 15 8 22 17 7 9 29 18 50 19
21 2 40 6 43 9 3 3 12 3 20 0 7 -3 24 -5 36 -5z"/>
<path d="M2783 4715 c-18 -8 -33 -11 -33 -8 0 4 -13 -6 -30 -22 -28 -27 -30
-34 -30 -101 l0 -71 45 -42 c43 -39 47 -41 110 -41 57 0 68 3 97 29 26 23 33
38 38 82 6 53 -5 99 -22 99 -5 0 -6 5 -3 10 3 6 1 10 -6 10 -7 0 -9 3 -6 7 4
4 -5 19 -20 35 -31 32 -85 37 -140 13z"/>
<path d="M4875 5442 c-24 -18 -88 -149 -82 -167 8 -18 47 -20 47 -2 0 7 18 40
39 73 22 32 35 63 31 68 -5 5 -6 15 -3 22 5 15 -15 19 -32 6z"/>
<path d="M7538 5286 c3 -5 -5 -7 -17 -3 -28 7 -53 -2 -44 -16 3 -6 1 -7 -6 -3
-6 4 -19 2 -28 -6 -14 -11 -16 -11 -8 1 6 11 5 12 -6 5 -8 -5 -16 -9 -19 -10
-3 -1 -20 -5 -37 -9 -18 -4 -31 -11 -28 -14 2 -4 -9 -6 -26 -5 -16 1 -29 -3
-29 -9 0 -6 -3 -7 -7 -4 -3 4 -16 1 -27 -6 -12 -7 -28 -13 -36 -12 -8 0 -23
-8 -32 -18 -9 -10 -20 -18 -25 -18 -4 0 -8 -8 -7 -19 0 -10 -3 -17 -7 -15 -4
3 -13 -3 -20 -12 -10 -12 -10 -14 -1 -9 18 11 15 -5 -5 -21 -10 -8 -12 -12 -5
-8 8 4 12 -1 12 -15 0 -12 4 -19 8 -16 4 2 9 -6 10 -20 1 -13 2 -35 3 -49 1
-13 5 -22 9 -20 4 3 11 -2 14 -11 4 -10 2 -13 -7 -8 -8 5 -8 2 2 -9 7 -9 11
-24 7 -32 -3 -9 -2 -14 2 -11 4 3 14 -4 21 -16 9 -15 10 -18 0 -13 -8 5 -10 4
-5 -3 4 -7 14 -12 22 -12 8 0 13 -4 10 -9 -3 -5 2 -15 11 -22 14 -12 16 -12 9
1 -7 13 -6 13 6 0 15 -17 40 -20 50 -5 5 6 8 6 8 -1 0 -6 7 -11 15 -11 8 0 12
4 9 9 -4 7 26 13 49 9 4 0 7 4 7 10 0 5 5 7 10 4 6 -3 10 0 10 7 0 9 3 9 10
-2 7 -11 10 -11 10 -2 0 7 8 12 18 11 9 -1 25 1 34 5 9 4 25 9 35 11 10 2 20
4 23 5 3 1 8 2 13 1 4 0 7 4 7 9 0 7 7 7 21 -1 12 -6 19 -7 15 -1 -7 11 21 25
35 16 5 -3 9 2 9 10 0 10 7 13 20 11 11 -2 18 0 15 5 -3 5 0 12 6 15 5 4 8 13
5 21 -5 12 4 17 24 16 3 0 5 15 5 34 0 22 -5 34 -14 34 -11 0 -11 3 -1 15 12
14 7 20 -14 16 -5 -1 -4 4 3 13 7 9 8 16 2 20 -5 4 -8 15 -6 26 2 12 0 18 -5
15 -5 -3 -11 -1 -15 5 -3 5 -1 10 6 10 8 0 7 6 -4 18 -12 13 -13 22 -5 36 8
14 7 17 -1 12 -10 -7 -16 6 -12 27 1 5 -3 6 -8 3 -10 -7 -63 32 -57 42 2 4 -9
7 -24 7 -15 0 -26 -4 -22 -9z m25 -135 c5 -1 5 -5 2 -11 -3 -5 0 -10 7 -10 11
0 10 -2 0 -9 -11 -6 -10 -10 3 -15 9 -3 15 -12 12 -20 -3 -7 0 -19 6 -26 9
-10 9 -11 -3 -5 -12 6 -13 5 -2 -6 14 -16 16 -43 2 -34 -5 3 -10 -2 -10 -12 0
-15 -2 -16 -10 -3 -5 8 -10 10 -10 4 0 -6 -7 -11 -15 -12 -8 -1 -22 -3 -30 -4
-8 -1 -15 -6 -15 -12 0 -6 -4 -4 -10 4 -8 12 -10 12 -15 -2 -4 -10 -14 -14
-27 -10 -15 4 -19 2 -13 -7 6 -10 3 -11 -15 -1 -15 8 -20 8 -16 1 7 -10 -12
-16 -41 -12 -6 1 -14 -3 -18 -9 -3 -5 -20 -10 -37 -10 -23 0 -29 4 -24 16 3 8
2 12 -3 9 -9 -5 -27 32 -23 48 1 4 -2 16 -8 27 -13 24 -2 53 17 46 8 -3 11 -1
8 4 -3 6 5 10 19 10 37 0 40 1 53 12 7 5 17 7 23 3 5 -3 10 -1 10 5 0 6 5 8
10 5 6 -3 10 0 10 7 0 9 3 9 10 -2 8 -11 12 -12 18 -3 4 7 18 14 30 16 12 2
25 6 28 10 4 4 13 2 21 -5 10 -8 12 -8 8 4 -4 11 0 14 17 12 13 -1 27 -3 31
-3z"/>
<path d="M1070 4898 c0 -11 -5 -15 -14 -12 -8 3 -24 1 -35 -5 -13 -7 -22 -8
-26 -1 -3 5 -11 10 -16 10 -6 0 -7 -4 -4 -10 4 -6 -2 -7 -18 -1 -13 5 -30 6
-37 1 -7 -5 -24 -4 -37 1 -30 11 -36 11 -29 1 3 -5 -1 -9 -9 -9 -8 0 -15 4
-15 8 0 9 -34 4 -52 -7 -8 -5 -9 -2 -4 11 6 18 6 18 -12 2 -10 -9 -22 -14 -25
-10 -10 10 -67 11 -67 1 0 -4 -5 -7 -11 -6 -6 2 -14 -4 -18 -12 -5 -8 -14 -26
-20 -39 -10 -18 -10 -25 -1 -31 9 -5 9 -9 1 -14 -6 -4 -9 -12 -6 -17 4 -5 3
-9 -2 -9 -7 0 -8 -28 -4 -73 1 -5 6 -5 11 -2 6 3 10 -1 10 -9 0 -9 5 -16 11
-16 5 0 7 -4 4 -10 -3 -6 1 -7 9 -4 10 4 18 -1 22 -11 4 -9 13 -14 20 -11 8 3
14 1 14 -5 0 -6 5 -7 10 -4 6 3 10 0 10 -7 0 -9 3 -9 10 2 9 13 10 13 10 0 0
-16 57 -43 71 -34 5 3 9 0 9 -6 0 -6 4 -9 9 -6 5 3 11 -1 15 -9 3 -8 12 -12
19 -9 8 3 17 -2 21 -11 3 -9 10 -14 15 -10 12 7 81 -25 81 -37 0 -5 4 -7 9 -3
5 3 15 -1 23 -8 7 -8 21 -13 31 -11 9 1 17 -2 17 -7 0 -5 7 -9 15 -9 8 0 15 5
15 11 0 5 -6 7 -12 3 -7 -4 -6 1 3 12 20 23 30 82 16 91 -6 4 -7 0 -3 -8 4 -8
1 -6 -7 4 -8 9 -24 17 -37 17 -36 0 -56 32 -52 80 3 29 7 38 13 29 13 -20 11
-1 -2 23 -9 16 -8 19 2 13 9 -6 11 -2 7 13 -4 13 0 23 9 26 8 3 11 11 7 17 -5
8 -1 8 14 0 27 -14 35 -14 26 2 -5 8 -2 8 9 -2 14 -11 17 -11 17 0 0 10 2 11
8 2 5 -9 11 -9 23 0 16 12 19 18 19 38 0 5 4 8 8 5 5 -3 9 1 9 9 0 8 -4 12 -9
9 -4 -3 -8 0 -8 5 0 6 5 11 10 11 15 0 12 26 -5 40 -8 7 -15 8 -15 3 0 -5 -9
-9 -20 -9 -11 0 -20 4 -20 9 0 4 -5 5 -11 1 -6 -3 -15 0 -20 7 -7 11 -9 10 -9
-3z m-304 -144 c-5 -13 -3 -14 6 -7 7 6 23 13 36 16 19 4 22 2 17 -11 -5 -14
-3 -13 14 2 12 11 21 14 26 7 4 -8 12 -8 25 -1 13 7 19 6 24 -6 3 -8 10 -13
14 -10 5 3 9 -1 9 -8 0 -8 -6 -12 -12 -10 -8 4 -11 -8 -10 -35 1 -22 -2 -38
-7 -35 -4 3 -8 1 -8 -4 0 -6 -9 -8 -20 -5 -11 3 -20 9 -20 14 0 5 -9 9 -20 9
-11 0 -20 5 -20 12 0 6 -3 8 -7 5 -3 -4 -16 -1 -27 6 -12 8 -29 13 -38 11 -10
-1 -18 4 -18 12 0 9 -5 12 -11 8 -8 -5 -8 -1 0 14 16 31 58 45 47 16z"/>
<path d="M5426 4798 c-17 -10 -46 -64 -46 -87 0 -9 -9 -29 -20 -46 -46 -69
-11 -173 89 -271 39 -38 73 -47 157 -42 55 3 60 5 82 39 20 30 24 50 24 110 0
41 -3 82 -7 92 -4 9 -5 29 -3 42 3 14 1 25 -5 25 -5 0 -7 9 -4 20 3 10 -1 24
-9 31 -8 6 -14 17 -14 23 0 7 -19 25 -42 40 -36 23 -55 28 -115 30 -39 2 -78
-1 -87 -6z"/>
<path d="M7790 4566 c12 -16 12 -18 1 -11 -21 12 -61 15 -61 4 0 -5 -10 -4
-22 2 -13 7 -25 11 -28 10 -3 -2 -13 -7 -22 -12 -10 -6 -19 -5 -23 1 -3 5 -11
10 -16 10 -6 0 -8 -4 -5 -9 6 -9 -37 -7 -53 3 -5 4 -12 2 -16 -4 -4 -7 -12 -7
-25 0 -12 6 -21 7 -25 0 -3 -5 -13 -6 -22 -3 -12 5 -14 3 -8 -8 8 -12 6 -12
-8 0 -14 11 -17 11 -17 0 0 -11 -2 -11 -10 1 -8 12 -10 12 -10 1 0 -10 -3 -11
-14 -2 -11 10 -17 8 -25 -6 -6 -10 -11 -13 -11 -8 0 13 -40 14 -40 2 0 -5 -7
-7 -15 -3 -8 3 -15 1 -15 -4 0 -5 -7 -15 -15 -23 -16 -16 -23 -76 -11 -95 4
-8 1 -12 -11 -12 -11 0 -14 -3 -7 -8 7 -4 14 -26 16 -49 4 -28 14 -49 32 -66
17 -16 23 -28 16 -32 -6 -3 -8 -11 -5 -16 4 -5 -1 -9 -10 -9 -9 0 -13 -4 -10
-10 3 -5 1 -10 -4 -10 -6 0 -10 -3 -10 -7 1 -5 1 -10 0 -13 -1 -3 -4 -20 -5
-37 -3 -22 0 -31 8 -26 7 4 6 1 -1 -8 -10 -12 -10 -18 -1 -27 7 -7 8 -12 2
-12 -6 0 -11 -7 -11 -15 0 -9 6 -14 13 -11 7 3 10 -2 7 -15 -3 -11 0 -19 6
-19 7 0 10 -4 7 -9 -3 -4 1 -17 9 -27 9 -12 14 -14 15 -6 0 10 4 9 16 -3 12
-12 19 -13 30 -4 8 6 14 7 14 2 0 -5 9 -9 20 -10 11 -1 18 2 16 6 -3 4 1 8 9
8 8 0 15 -3 15 -7 0 -4 7 -7 15 -7 8 0 12 4 9 9 -3 4 -1 8 5 8 5 0 12 -6 14
-12 3 -8 6 -6 6 5 1 14 5 16 20 7 26 -13 34 -13 25 3 -5 8 -2 8 9 -2 13 -10
17 -10 17 -1 0 10 3 10 15 0 12 -10 15 -10 15 1 0 11 2 11 10 -1 8 -12 11 -13
19 -1 5 8 11 9 15 3 3 -5 22 -6 46 -2 22 4 40 5 40 1 0 -3 11 -6 25 -6 14 0
25 4 25 8 0 5 4 5 10 2 5 -3 18 -1 27 5 16 11 16 11 -1 5 -20 -6 -20 -6 -1 15
11 13 15 24 10 28 -13 9 -16 44 -4 36 15 -9 10 16 -5 32 -9 9 -17 10 -21 4 -4
-7 -13 -7 -26 0 -13 8 -19 7 -19 0 0 -6 -5 -8 -12 -3 -21 12 -38 12 -38 0 0
-7 -5 -5 -10 3 -5 8 -10 10 -10 4 0 -7 -16 -11 -40 -10 -22 0 -42 -3 -44 -9
-3 -6 -5 -5 -5 2 -1 6 -10 9 -23 5 -16 -4 -19 -2 -14 9 4 8 0 5 -8 -5 -9 -11
-16 -17 -16 -13 0 4 -9 3 -20 -3 -16 -9 -20 -8 -20 7 0 15 -2 15 -15 -3 -8
-10 -15 -13 -15 -7 0 9 -7 10 -26 3 -19 -7 -23 -7 -18 2 5 8 2 9 -9 5 -16 -6
-21 3 -18 31 1 6 -3 12 -10 12 -8 0 -9 4 0 13 7 9 7 17 0 24 -7 7 -2 15 15 27
15 9 26 12 26 6 0 -8 6 -7 20 0 15 8 20 8 20 -1 0 -8 4 -8 15 1 11 9 15 9 15
1 0 -11 39 -9 59 3 5 4 12 2 16 -4 3 -5 11 -10 16 -10 6 0 8 4 5 9 -6 9 42 6
51 -3 4 -3 13 0 21 7 13 10 14 9 7 -3 -6 -12 -5 -13 5 -3 11 10 17 10 29 0 10
-8 12 -8 8 -1 -4 7 0 14 8 18 8 3 15 2 15 -2 0 -4 16 -7 35 -7 22 0 35 5 35
13 0 7 3 11 8 9 4 -3 7 19 7 48 0 48 -3 54 -22 58 -13 2 -23 0 -23 -4 0 -5 -5
-9 -11 -9 -5 0 -7 6 -3 13 4 6 -2 4 -13 -6 -11 -9 -22 -14 -25 -11 -11 10 -43
12 -60 3 -10 -6 -19 -5 -23 1 -3 5 -11 10 -16 10 -6 0 -8 -4 -5 -8 3 -5 -1 -9
-9 -9 -8 0 -15 3 -15 7 0 3 -9 6 -20 7 -11 1 -18 -3 -14 -8 7 -12 -19 -7 -28
6 -5 6 -11 6 -19 -2 -6 -6 -18 -9 -25 -6 -8 3 -14 0 -14 -7 0 -10 -3 -10 -15
0 -12 10 -15 10 -15 -1 0 -11 -2 -11 -10 1 -9 13 -11 13 -20 0 -7 -12 -10 -12
-10 -1 0 7 -6 11 -14 8 -11 -4 -14 1 -12 21 1 15 -2 33 -7 40 -6 8 -5 12 3 12
10 0 9 4 -1 18 -7 9 -9 14 -5 10 5 -4 16 -3 23 4 11 9 17 9 24 -3 7 -11 9 -11
9 -1 0 10 14 13 55 10 30 -1 55 1 55 5 0 5 6 5 13 0 15 -9 58 -4 74 8 7 7 13
5 15 -3 4 -9 9 -10 19 -3 15 12 85 13 96 2 3 -4 13 -1 21 6 9 6 13 7 9 1 -3
-6 0 -11 8 -11 8 0 12 4 9 9 -3 4 0 8 6 8 13 0 9 32 -5 43 -7 5 -7 10 0 15 18
13 16 48 -2 63 -17 13 -17 13 -3 -5z"/>
<path d="M630 4278 c0 -4 -13 -8 -30 -8 -20 0 -33 -7 -41 -21 -9 -17 -8 -20 3
-13 11 6 11 5 0 -8 -9 -11 -10 -18 -2 -23 6 -4 7 -12 1 -23 -5 -9 -5 -26 0
-39 5 -14 4 -25 -2 -29 -8 -4 -7 -9 2 -15 12 -7 12 -9 0 -9 -11 0 -11 -3 -1
-15 7 -8 9 -15 6 -15 -4 0 3 -14 15 -32 13 -17 18 -28 11 -24 -8 5 -10 2 -6
-8 3 -9 10 -14 14 -11 4 2 20 -7 36 -20 17 -15 31 -20 33 -14 2 7 6 7 12 -2 6
-10 9 -10 9 -2 0 7 6 10 13 8 30 -11 87 -12 87 -1 0 6 5 4 10 -4 7 -11 10 -11
10 -2 0 8 5 10 12 6 18 -11 88 -11 88 1 0 5 5 3 10 -5 5 -8 10 -10 10 -5 0 6
16 10 35 9 19 -1 35 2 35 8 0 5 6 8 12 6 13 -5 21 2 48 36 13 18 13 19 0 12
-9 -4 -8 -1 3 7 9 8 17 22 17 31 0 10 3 15 8 13 4 -3 7 28 7 69 0 41 -4 74 -8
74 -5 0 -5 5 -2 11 4 6 8 23 9 38 2 28 -14 34 -42 17 -6 -4 -12 -3 -12 1 0 5
-9 9 -19 9 -11 0 -17 -4 -15 -8 3 -4 0 -8 -6 -8 -8 0 -11 -20 -8 -60 2 -47 0
-60 -11 -60 -11 0 -9 -4 5 -15 19 -14 19 -14 -1 -15 -14 0 -16 -3 -8 -8 10 -6
10 -12 -3 -28 -8 -10 -12 -12 -8 -4 7 13 5 13 -8 2 -12 -10 -18 -10 -23 -1 -6
8 -10 7 -16 -2 -5 -8 -9 -9 -9 -3 0 12 -79 12 -98 0 -7 -4 -12 -2 -12 5 0 8
-4 8 -15 -1 -12 -10 -15 -10 -15 1 0 11 -2 11 -10 -1 -6 -9 -10 -10 -10 -3 0
12 -30 10 -52 -3 -8 -5 -9 -1 -5 12 7 18 7 18 -8 0 -11 -15 -15 -16 -17 -5 -3
31 -4 34 -12 48 -6 10 -5 12 2 7 7 -4 12 -2 12 3 0 6 -5 11 -11 11 -8 0 -8 4
-1 13 7 8 7 18 2 27 -5 8 -5 21 0 30 6 11 5 22 -3 30 -10 10 -9 11 3 5 12 -7
13 -6 3 7 -7 8 -11 17 -8 20 3 2 -2 5 -10 5 -8 0 -15 -4 -15 -9z"/>
<path d="M3240 3429 c0 -5 5 -7 10 -4 6 3 10 8 10 11 0 2 -4 4 -10 4 -5 0 -10
-5 -10 -11z"/>
<path d="M3995 3419 c-85 -11 -119 -31 -135 -78 -7 -22 -17 -41 -21 -41 -11 0
2 -40 29 -90 48 -87 70 -120 152 -230 30 -41 69 -95 85 -119 17 -25 40 -55 51
-68 12 -13 25 -40 29 -61 6 -31 3 -40 -18 -58 -13 -11 -32 -33 -42 -48 -10
-14 -37 -35 -61 -45 -23 -11 -49 -29 -56 -40 -7 -12 -17 -21 -21 -21 -5 0 -29
-14 -54 -31 -25 -18 -73 -42 -107 -53 -34 -12 -65 -24 -71 -27 -5 -4 -43 -14
-82 -24 -74 -17 -91 -34 -55 -54 16 -10 16 -10 0 -11 -9 0 -30 -12 -45 -26
l-28 -26 35 7 c19 4 41 12 47 17 7 6 20 8 28 4 8 -3 15 -1 15 4 0 15 38 12 42
-2 3 -9 17 -4 46 15 23 15 42 24 42 20 0 -5 5 0 11 10 12 20 29 23 29 5 0 -7
-32 -33 -71 -58 -109 -70 -153 -104 -148 -115 2 -6 8 -9 12 -7 4 1 10 -5 14
-13 4 -13 15 -15 52 -10 49 7 178 48 224 71 15 8 27 12 27 10 0 -3 12 6 26 19
28 26 54 33 54 14 0 -5 5 -7 10 -4 6 3 10 1 10 -4 0 -18 26 -12 45 9 10 11 24
20 32 20 7 0 13 4 13 9 0 5 8 12 18 16 11 3 44 30 75 61 31 31 62 54 69 52 7
-3 16 -24 20 -48 4 -24 11 -47 16 -52 4 -4 5 -37 2 -73 -5 -58 -3 -68 16 -86
l21 -20 24 25 c13 14 31 26 40 26 16 0 42 -39 38 -56 -4 -14 12 -74 20 -74 4
0 4 27 1 61 l-6 61 26 -5 c25 -5 25 -5 23 61 -1 37 -6 80 -12 95 -6 15 -8 34
-5 42 4 8 1 15 -6 15 -7 0 -10 7 -7 15 4 8 2 17 -4 20 -5 4 -7 11 -4 16 4 5 1
9 -5 9 -7 0 -10 7 -7 15 4 8 2 17 -4 21 -6 3 -8 12 -5 20 3 8 1 14 -5 14 -6 0
-7 5 -4 10 3 6 2 10 -4 10 -6 0 -8 6 -6 13 3 6 -8 21 -25 32 -37 25 -37 34 -3
93 14 26 36 67 49 90 12 24 31 53 41 65 11 12 28 45 38 72 9 28 23 64 30 80
21 49 35 120 35 177 0 30 5 59 12 66 9 9 9 12 -1 12 -8 0 -12 12 -10 34 2 19
0 38 -3 41 -4 4 -5 12 -2 18 2 7 -8 20 -23 29 -16 10 -39 27 -53 38 -24 19
-40 21 -265 23 -132 2 -262 0 -290 -4z m426 -196 c8 -8 -13 -70 -71 -213 -10
-25 -24 -59 -31 -77 -8 -19 -19 -31 -30 -30 -10 1 -16 4 -13 8 2 4 -6 16 -18
26 -13 10 -24 25 -26 33 -2 8 -10 20 -17 26 -8 6 -13 13 -10 15 6 7 -83 119
-94 119 -10 0 -71 79 -71 91 0 4 8 9 18 11 35 7 355 -1 363 -9z"/>
<path d="M3315 2323 c3 -3 -2 -11 -11 -17 -13 -10 -13 -12 4 -13 19 -2 25 20
9 32 -4 3 -5 2 -2 -2z"/>
<path d="M3371 2233 c-18 -20 -13 -22 28 -9 52 15 57 21 16 21 -18 0 -38 -5
-44 -12z"/>
<path d="M4437 1971 c-9 -45 -9 -63 2 -57 12 8 19 49 11 71 -5 15 -8 12 -13
-14z"/>
<path d="M4496 1965 c-3 -8 -1 -15 4 -15 6 0 10 7 10 15 0 8 -2 15 -4 15 -2 0
-6 -7 -10 -15z"/>
<path d="M6300 1863 c0 -5 -10 -13 -22 -18 -17 -7 -23 -19 -24 -43 -1 -18 4
-35 9 -39 6 -4 7 -1 2 7 -5 9 -4 11 3 6 7 -4 12 -14 12 -22 0 -9 5 -12 11 -8
7 4 10 1 7 -7 -2 -7 7 -24 21 -37 15 -14 18 -19 6 -11 -14 9 -13 5 5 -13 14
-14 29 -23 34 -20 5 3 6 0 2 -6 -4 -6 2 -20 13 -31 13 -13 16 -21 8 -25 -8 -3
-8 -5 1 -5 17 -1 43 -27 35 -35 -3 -3 2 -8 11 -12 9 -3 16 -12 16 -20 0 -8 7
-14 16 -14 11 0 14 -6 9 -20 -4 -13 -2 -20 5 -18 7 2 15 -3 18 -11 3 -8 0 -11
-7 -7 -6 4 -11 0 -11 -10 0 -10 -3 -14 -7 -11 -3 4 -13 -2 -20 -13 -8 -11 -19
-18 -24 -15 -5 4 -9 0 -9 -7 0 -10 -2 -10 -9 0 -4 8 -12 12 -16 10 -4 -1 -24
17 -44 42 -20 25 -27 38 -16 30 20 -14 20 -14 1 7 -10 13 -23 20 -27 17 -5 -3
-6 2 -3 10 4 10 1 16 -10 16 -10 0 -13 5 -9 17 4 11 3 14 -5 9 -8 -5 -12 1
-13 16 0 13 -3 17 -6 10 -4 -10 -9 -8 -20 7 -8 12 -12 25 -8 30 3 5 -4 16 -15
24 -11 7 -17 17 -12 21 4 5 -2 6 -13 4 -15 -2 -20 2 -19 20 1 12 -4 22 -11 22
-7 0 -15 7 -19 15 -3 8 -12 12 -21 9 -8 -3 -12 -10 -9 -15 3 -5 -1 -9 -9 -9
-8 0 -24 -9 -37 -20 -13 -11 -18 -20 -11 -20 7 0 10 -4 6 -9 -3 -5 2 -16 10
-24 8 -9 15 -19 15 -24 0 -4 9 -14 20 -21 11 -7 20 -17 20 -23 0 -6 7 -17 15
-26 8 -8 12 -19 9 -25 -4 -6 -3 -9 2 -6 5 3 17 -3 27 -14 9 -10 15 -18 12 -18
-3 0 6 -12 20 -26 15 -14 24 -33 21 -41 -3 -8 -1 -11 4 -8 6 3 10 1 10 -5 0
-6 4 -8 10 -5 5 3 7 0 4 -9 -3 -9 3 -19 16 -26 11 -6 18 -15 15 -21 -4 -5 -2
-9 3 -9 5 0 9 -7 9 -15 0 -8 -4 -12 -9 -9 -4 3 -8 0 -8 -6 0 -7 -7 -10 -15 -6
-8 3 -14 2 -14 -2 3 -20 -4 -27 -29 -29 -33 -2 -53 13 -45 33 3 9 0 14 -8 12
-8 -2 -13 3 -11 10 2 11 -11 17 -33 12 -5 -1 -7 2 -3 6 8 8 -22 64 -34 64 -4
0 -4 7 -1 17 4 10 2 14 -4 10 -5 -3 -16 5 -23 18 -7 13 -17 22 -21 19 -5 -3
-6 1 -3 9 3 9 -3 16 -15 20 -14 3 -19 11 -15 20 3 10 -2 18 -15 22 -12 4 -18
12 -14 21 3 9 -1 14 -12 14 -9 0 -13 4 -10 10 3 6 -4 9 -19 8 -13 -1 -24 -7
-23 -12 1 -6 -3 -10 -9 -11 -26 -1 -59 -55 -33 -55 5 0 7 -4 4 -10 -3 -5 -1
-10 5 -10 6 0 10 -6 8 -14 -2 -7 14 -30 34 -49 24 -23 33 -37 25 -40 -7 -3 -5
-6 5 -6 12 -1 15 -6 11 -18 -4 -11 -3 -14 6 -9 8 5 14 1 18 -13 3 -11 9 -18
14 -15 5 3 9 -2 9 -10 0 -8 8 -20 18 -25 13 -8 14 -11 2 -11 -9 -1 -6 -5 8
-10 12 -5 22 -15 22 -22 0 -8 9 -20 19 -28 11 -7 18 -17 15 -22 -3 -4 0 -8 6
-8 6 0 8 -4 5 -10 -3 -5 -1 -10 5 -10 6 0 8 -4 5 -10 -3 -6 1 -7 9 -4 11 4 16
0 16 -10 0 -9 7 -16 15 -16 8 0 15 -5 15 -10 0 -7 6 -7 19 0 11 5 27 7 35 4
12 -5 15 -2 9 12 -4 12 -3 15 5 10 7 -4 12 -2 12 4 0 6 5 8 10 5 6 -3 10 -1
10 5 0 6 5 8 10 5 6 -3 10 -2 10 3 0 5 17 21 37 35 21 15 34 27 29 27 -4 0 -1
12 9 26 9 15 12 23 5 19 -10 -6 -10 -3 -2 11 8 14 22 19 57 19 33 1 51 6 60
18 7 9 15 17 19 17 3 0 15 9 26 20 12 12 25 18 30 15 6 -4 7 1 3 11 -3 10 -2
15 3 12 5 -3 15 0 22 8 7 8 10 14 5 14 -4 0 2 7 13 15 10 8 15 15 10 15 -5 0
-3 7 4 15 11 13 10 14 -4 9 -12 -5 -15 -2 -9 12 5 13 3 15 -8 10 -8 -4 -5 0 6
10 16 14 17 16 3 11 -20 -7 -43 26 -32 45 4 7 3 8 -4 4 -7 -4 -17 3 -24 18 -6
14 -18 26 -27 26 -14 0 -14 2 -1 10 11 7 12 10 2 10 -7 0 -20 7 -28 15 -9 8
-12 15 -8 15 3 0 1 6 -5 13 -6 8 -8 17 -4 20 3 4 -3 10 -13 14 -22 8 -30 16
-63 62 -13 19 -17 31 -10 26 8 -4 -1 5 -19 20 -18 15 -31 33 -29 39 3 7 -7 13
-24 14 -16 1 -29 -1 -29 -5z"/>
<path d="M2165 1836 c-11 -6 -26 -18 -33 -26 -12 -13 -13 -13 -7 0 3 8 -2 4
-12 -10 -10 -13 -26 -33 -35 -42 -10 -10 -18 -22 -18 -28 0 -5 -8 -10 -17 -10
-14 0 -15 -2 -4 -9 11 -7 9 -10 -8 -16 -12 -3 -20 -9 -18 -13 5 -10 -30 -42
-38 -34 -3 4 -3 -2 1 -12 6 -15 4 -17 -6 -11 -10 6 -12 4 -7 -9 6 -14 3 -17
-8 -12 -9 3 -13 2 -10 -4 3 -6 3 -10 -2 -10 -4 0 -17 -12 -27 -27 -12 -16 -14
-23 -5 -18 11 7 12 6 2 -7 -7 -8 -9 -19 -5 -23 4 -5 2 -5 -4 -2 -7 4 -14 0
-17 -7 -3 -8 -1 -17 6 -20 8 -3 7 -5 -2 -5 -11 -1 -10 -5 5 -17 10 -8 13 -13
7 -9 -9 4 -11 1 -7 -9 3 -9 10 -16 14 -16 5 0 12 -9 15 -20 4 -11 11 -18 16
-15 5 4 9 -1 9 -9 0 -9 7 -16 16 -16 10 0 14 -5 10 -16 -3 -8 -2 -12 4 -9 5 3
18 -3 30 -15 11 -11 25 -20 30 -20 6 0 10 -4 10 -10 0 -5 7 -10 16 -10 8 0 12
-4 9 -10 -13 -21 14 -9 33 15 11 13 22 22 25 19 3 -3 3 4 0 17 -4 13 -2 20 3
16 5 -3 10 3 10 13 0 10 -4 17 -8 14 -4 -2 -18 8 -32 23 -15 16 -30 28 -34 28
-4 0 -18 10 -32 23 -13 12 -27 22 -30 22 -4 0 -7 7 -7 15 0 11 4 12 14 3 11
-9 12 -7 7 7 -6 14 -4 16 7 10 11 -7 11 -5 -1 10 -8 10 -10 16 -4 12 7 -4 15
0 18 9 3 8 11 12 17 8 7 -4 9 -3 6 3 -7 12 31 59 44 56 5 -2 9 3 9 11 0 8 7
17 16 20 8 3 12 10 9 16 -6 9 8 14 28 11 4 0 6 2 6 7 -3 19 2 33 11 27 6 -3
10 -1 10 4 0 6 7 11 15 11 8 0 15 -5 15 -11 0 -5 4 -8 9 -5 12 8 72 -49 63
-59 -4 -5 -1 -5 6 -1 9 5 19 0 29 -13 12 -17 18 -19 29 -10 7 6 11 15 8 20 -3
5 3 6 12 2 12 -4 15 -3 10 5 -4 7 -2 12 5 12 7 0 10 3 6 6 -3 4 0 13 8 21 22
21 18 32 -7 26 -19 -4 -20 -3 -8 6 13 9 13 11 0 11 -9 0 -23 9 -33 20 -10 12
-23 18 -29 14 -7 -4 -8 -3 -4 4 4 7 2 12 -4 12 -6 0 -8 5 -5 10 3 6 -3 10 -13
10 -11 0 -27 10 -36 23 -9 12 -14 16 -10 8 7 -15 -6 -10 -34 12 -19 15 -44 15
-67 3z"/>
<path d="M2665 1510 c3 -5 -7 -17 -22 -27 -43 -28 -73 -55 -73 -67 0 -6 -13
-22 -29 -36 -17 -13 -28 -27 -25 -32 5 -7 -11 -12 -29 -9 -5 1 -6 -3 -3 -8 7
-11 -18 -33 -28 -24 -4 4 -4 -1 0 -10 3 -10 3 -17 -2 -15 -12 4 -60 -44 -56
-56 2 -5 -4 -6 -13 -2 -10 4 -15 2 -13 -6 2 -6 -11 -26 -29 -44 -32 -33 -43
-64 -22 -64 5 0 7 -5 3 -12 -4 -6 -3 -8 4 -4 6 3 14 2 17 -4 4 -6 16 -8 27 -4
14 4 18 2 14 -5 -4 -6 -4 -11 -1 -11 11 0 35 28 35 41 0 7 3 9 7 6 3 -4 12 1
20 11 10 11 12 12 8 2 -5 -12 -4 -12 7 1 14 17 48 22 48 7 0 -5 5 -6 10 -3 6
3 10 1 10 -5 0 -6 5 -8 10 -5 6 3 10 2 10 -2 0 -5 9 -14 21 -21 17 -11 20 -11
14 0 -3 7 1 4 9 -6 9 -11 16 -17 16 -13 0 5 6 2 14 -5 16 -15 15 -40 -2 -46
-7 -2 -12 -8 -12 -13 0 -6 6 -7 13 -4 6 4 5 0 -5 -7 -12 -10 -13 -19 -7 -31 7
-11 6 -17 -1 -17 -5 0 -2 -8 8 -18 9 -11 20 -17 25 -15 4 2 7 -1 7 -7 0 -6 4
-9 9 -5 5 3 12 1 16 -4 8 -14 32 -3 32 14 0 8 -5 12 -11 9 -6 -3 -2 3 10 13
11 10 19 28 18 41 0 12 3 22 8 22 5 0 6 5 3 10 -4 6 -2 16 3 23 6 7 11 15 11
20 1 4 1 8 2 10 0 1 3 15 5 32 3 16 11 33 17 37 7 4 8 8 2 8 -5 0 -3 5 5 10
12 8 12 10 1 10 -11 0 -11 3 -1 15 7 8 9 15 4 15 -5 0 -1 5 9 11 14 8 16 14 6
25 -9 11 -9 14 0 14 7 0 9 5 6 10 -3 6 -1 10 5 10 6 0 8 5 5 10 -4 6 -1 17 5
25 7 8 9 15 5 15 -4 0 -2 7 5 15 7 8 9 15 5 15 -4 0 -3 6 2 13 6 6 10 19 10
27 0 8 2 22 4 30 2 8 -2 14 -8 13 -7 -2 -13 4 -13 13 0 8 -4 12 -10 9 -5 -3
-10 -2 -10 2 0 5 -9 14 -21 21 -17 11 -20 11 -14 0 4 -7 -3 -2 -15 12 -12 14
-18 18 -14 10 6 -12 5 -13 -7 -3 -17 14 -81 25 -74 13z m65 -136 c0 -3 -6 -2
-12 2 -9 5 -9 2 1 -9 11 -14 11 -17 0 -17 -11 0 -11 -2 1 -10 12 -8 12 -10 1
-10 -8 0 -11 -7 -8 -20 3 -11 1 -18 -4 -14 -9 5 -12 -4 -12 -38 0 -10 -4 -18
-9 -18 -5 0 -7 -4 -3 -9 3 -5 1 -12 -5 -16 -6 -4 -7 -12 -3 -18 5 -9 3 -9 -8
-1 -8 5 -24 9 -36 8 -15 -1 -23 4 -23 15 0 14 -2 14 -10 1 -9 -13 -14 -7 -11
12 0 4 -5 5 -12 2 -8 -3 -14 2 -14 11 0 8 4 15 9 15 5 0 6 5 2 12 -5 8 -2 9 9
5 10 -4 16 -2 14 6 -1 7 4 11 11 9 8 -1 11 2 7 8 -3 5 1 13 9 16 9 3 14 10 11
14 -7 11 22 33 34 25 7 -3 8 0 5 9 -4 11 0 16 11 16 9 0 13 5 9 11 -4 8 0 8
15 0 11 -7 21 -14 21 -17z"/>
<path d="M6365 1440 c3 -5 8 -10 11 -10 2 0 4 5 4 10 0 6 -5 10 -11 10 -5 0
-7 -4 -4 -10z"/>
<path d="M5576 1399 c3 -5 2 -9 -3 -10 -4 0 -19 -2 -32 -3 -14 -2 -27 -8 -29
-15 -2 -6 -8 -8 -14 -5 -5 3 -16 -2 -24 -12 -13 -18 -14 -18 -8 1 5 19 5 19
-9 2 -8 -10 -21 -16 -28 -15 -8 2 -13 -2 -12 -8 1 -6 -8 -11 -20 -10 -13 1
-26 -8 -33 -21 -6 -13 -13 -20 -17 -17 -3 3 -10 -3 -16 -14 -6 -11 -7 -22 -4
-26 3 -3 1 -6 -6 -6 -8 0 -11 -7 -7 -15 3 -8 1 -15 -3 -15 -5 0 -7 -9 -4 -20
3 -11 9 -20 14 -20 4 0 6 -9 4 -20 -3 -13 2 -20 13 -20 12 0 13 -3 4 -12 -14
-14 -16 -29 -3 -25 5 1 10 -2 12 -8 1 -5 9 -16 18 -23 14 -12 14 -13 -4 -7
-18 6 -18 5 3 -15 24 -23 29 -36 10 -24 -9 6 -9 3 0 -9 8 -9 11 -21 7 -26 -4
-7 1 -8 11 -4 11 4 15 3 10 -5 -3 -6 -2 -13 4 -17 5 -3 10 -15 10 -26 0 -11 4
-18 9 -15 5 4 7 -3 4 -14 -3 -11 0 -20 6 -20 6 0 11 -7 11 -15 0 -8 5 -15 10
-15 6 0 10 -6 10 -14 0 -14 27 -31 44 -27 5 1 13 -4 17 -11 6 -10 11 -10 20
-1 10 10 15 9 26 -5 8 -9 12 -12 9 -6 -3 6 12 18 34 27 28 11 40 12 44 3 2 -6
5 -3 5 7 1 11 9 17 27 17 17 0 23 4 18 12 -5 8 -2 9 9 5 10 -3 17 -2 17 3 0 6
6 10 14 10 8 0 18 9 21 20 4 11 11 18 16 15 5 -4 9 -1 9 5 0 6 4 9 9 6 5 -4 7
4 3 16 -4 16 -1 20 9 16 10 -4 14 3 14 28 0 19 -3 34 -7 34 -3 0 -5 11 -4 25
2 13 -1 22 -5 19 -5 -3 -9 2 -9 10 0 9 -4 16 -9 16 -6 0 -8 9 -6 20 2 11 1 19
-3 19 -20 -3 -23 3 -11 18 10 11 10 14 2 9 -12 -6 -15 1 -13 29 1 3 -6 13 -15
21 -8 9 -13 20 -10 25 4 5 1 9 -4 9 -6 0 -11 11 -11 25 0 14 -4 25 -10 25 -5
0 -10 7 -10 15 0 8 -4 15 -10 15 -5 0 -10 11 -10 25 0 14 -4 25 -9 25 -5 0
-16 6 -23 13 -16 15 -90 39 -82 26z m17 -138 c5 0 6 -5 3 -10 -4 -5 -1 -11 5
-13 6 -2 12 -15 12 -30 1 -14 5 -24 10 -21 6 4 11 -12 8 -29 0 -5 5 -8 12 -8
8 0 7 -4 -3 -10 -13 -8 -13 -10 2 -10 10 0 15 -7 13 -17 -1 -10 4 -26 13 -35
8 -10 12 -18 8 -18 -4 0 0 -7 8 -16 9 -8 14 -20 11 -25 -4 -5 -1 -9 4 -9 6 0
11 -5 11 -11 0 -5 -6 -7 -12 -3 -10 6 -10 5 -1 -7 10 -12 8 -17 -9 -28 -16
-10 -19 -10 -13 1 3 7 1 6 -7 -2 -7 -9 -20 -15 -28 -15 -8 0 -21 -5 -28 -12
-7 -6 -22 -9 -35 -7 -12 3 -28 6 -34 6 -16 2 -17 14 -2 23 6 5 4 12 -8 22 -11
9 -12 12 -3 8 12 -5 12 -4 -1 7 -9 7 -14 19 -12 26 3 6 -2 12 -11 12 -11 0
-16 9 -16 31 0 17 -4 28 -10 24 -8 -5 -13 15 -9 42 0 3 -6 10 -15 15 -8 5 -13
15 -10 23 4 8 2 15 -4 15 -5 0 -13 7 -16 16 -5 14 -4 15 9 4 13 -11 14 -10 9
4 -4 9 -1 16 6 16 7 0 19 8 27 18 8 10 11 11 7 2 -6 -12 -5 -13 7 -4 8 6 22
10 31 9 10 -2 17 0 17 3 -3 19 6 21 54 13z"/>
<path d="M3090 1296 c6 -6 5 -17 -2 -30 -16 -28 -21 -59 -8 -51 5 3 10 0 10
-7 0 -7 12 -14 26 -15 15 0 30 -7 35 -15 5 -7 9 -8 9 -3 0 6 5 2 11 -9 9 -14
8 -20 -2 -27 -10 -6 -11 -9 -1 -9 6 0 12 -5 12 -11 0 -5 -4 -7 -10 -4 -5 3
-10 -3 -10 -15 0 -12 -4 -19 -9 -16 -5 4 -7 -4 -3 -16 3 -12 1 -19 -5 -15 -5
3 -10 0 -10 -8 0 -8 4 -12 8 -10 4 3 2 -6 -4 -20 -7 -14 -16 -25 -20 -25 -5 0
-6 -4 -3 -8 3 -5 -1 -21 -9 -36 -10 -18 -10 -24 -2 -19 9 5 9 3 0 -9 -7 -8
-10 -18 -6 -21 3 -4 2 -7 -4 -7 -5 0 -10 -6 -10 -12 -1 -25 -8 -43 -23 -56
-13 -12 -13 -13 0 -6 13 7 13 5 2 -8 -7 -9 -9 -19 -4 -22 5 -3 8 -17 6 -31 -2
-22 0 -24 12 -14 11 9 14 9 14 -1 0 -8 3 -10 7 -7 3 4 15 -1 25 -10 18 -16 18
-16 12 0 -5 13 -2 16 12 10 13 -5 16 -3 11 10 -3 9 -2 17 3 17 6 0 9 3 8 8 -3
14 14 62 21 58 4 -3 8 4 9 15 4 43 6 49 15 49 5 0 3 8 -4 17 -10 11 -10 14 -1
9 6 -4 13 -2 13 3 1 6 2 17 3 24 1 6 8 11 16 9 11 -3 11 -1 0 13 -11 14 -11
18 -1 25 8 4 10 13 7 19 -4 6 -3 11 3 11 6 0 7 7 4 17 -4 10 -2 14 4 10 6 -4
10 1 10 11 0 27 14 62 25 62 5 0 6 -6 2 -12 -6 -9 -3 -9 9 0 9 8 20 11 26 8 5
-3 12 0 14 6 4 10 6 10 6 1 1 -7 8 -13 17 -13 9 0 12 -5 8 -12 -6 -10 -5 -10
8 -1 8 7 19 9 24 5 5 -4 6 -3 2 2 -9 11 14 36 27 28 6 -3 4 2 -4 11 -9 11 -10
17 -2 17 6 0 10 3 10 8 -3 20 2 32 13 26 6 -4 8 -3 5 2 -3 5 -20 11 -37 12
-17 1 -42 9 -54 18 -13 8 -34 17 -46 19 -12 2 -29 10 -38 17 -13 11 -15 11 -7
-2 6 -12 5 -13 -6 -2 -7 6 -24 12 -37 12 -15 0 -21 4 -16 12 4 7 3 8 -5 4 -6
-4 -19 -2 -28 6 -12 9 -15 9 -9 1 5 -9 2 -11 -8 -7 -9 3 -16 10 -16 14 0 4
-16 7 -35 7 -22 -1 -31 -5 -25 -11z"/>
<path d="M4855 1161 c-3 -6 -10 -9 -15 -6 -5 3 -13 -3 -19 -12 -6 -10 -11 -13
-11 -8 0 6 -4 4 -9 -4 -5 -8 -3 -23 5 -39 10 -20 11 -28 1 -34 -8 -5 -6 -8 7
-8 11 0 17 -2 14 -6 -3 -3 -2 -21 2 -40 4 -19 4 -34 -1 -34 -5 0 -9 -4 -9 -10
0 -5 6 -9 13 -7 7 1 12 -8 11 -20 0 -13 4 -23 10 -23 6 0 4 -5 -4 -10 -12 -7
-12 -10 -1 -10 7 0 11 -6 7 -15 -3 -8 -2 -15 3 -15 4 0 7 -10 6 -22 -1 -13 5
-29 12 -36 10 -11 11 -17 2 -28 -9 -11 -9 -14 1 -14 7 0 10 -7 6 -15 -3 -8 0
-15 7 -15 8 0 6 -4 -3 -10 -12 -8 -12 -10 -1 -10 9 0 12 -8 8 -26 -3 -16 0
-28 9 -31 7 -2 10 -12 7 -20 -4 -11 -2 -14 5 -9 8 4 12 0 12 -11 0 -15 2 -16
10 -3 5 8 10 11 10 6 0 -5 8 -2 17 5 15 12 16 12 8 -1 -7 -12 -6 -13 6 -3 8 6
34 14 58 17 24 2 48 11 52 18 7 10 9 10 9 -2 0 -10 3 -11 8 -4 11 17 35 22 56
12 13 -7 16 -7 12 1 -5 7 2 11 16 12 13 0 17 3 10 6 -10 4 -10 8 -1 19 6 8 7
14 2 14 -5 0 -10 7 -10 15 0 8 4 15 9 15 4 0 -2 11 -14 26 -19 22 -24 23 -34
10 -8 -12 -13 -13 -22 -4 -9 9 -12 9 -12 -1 0 -7 -4 -9 -10 -6 -5 3 -10 0 -10
-7 0 -10 -2 -11 -8 0 -10 16 -45 4 -35 -12 3 -6 -4 -2 -16 8 -21 19 -21 19
-15 1 5 -12 4 -16 -4 -11 -16 9 -46 75 -38 83 3 3 0 13 -7 21 -8 11 -9 14 0 9
8 -5 11 -1 10 12 -1 15 -4 17 -14 10 -9 -8 -11 -6 -8 10 2 12 -1 21 -8 21 -8
0 -8 3 -2 8 13 9 12 38 -1 35 -5 -1 -9 11 -8 25 0 15 -5 44 -12 65 -7 21 -9
35 -4 32 6 -3 10 -1 10 4 0 6 -8 11 -17 11 -10 0 -14 4 -8 8 13 9 18 35 5 27
-6 -4 -10 5 -10 21 0 21 -3 24 -13 15 -10 -7 -17 -7 -24 0 -8 8 -13 8 -18 0z"/>
<path d="M3745 1151 c6 -11 4 -13 -8 -8 -10 4 -17 1 -17 -6 0 -8 -3 -8 -9 2
-6 9 -11 10 -15 2 -4 -6 -11 -9 -16 -6 -5 3 -11 -4 -15 -15 -4 -11 -10 -18
-14 -16 -4 3 -15 -8 -25 -25 -13 -22 -14 -29 -4 -29 10 0 10 -2 1 -8 -7 -5
-14 -28 -15 -53 0 -24 -6 -47 -12 -51 -7 -5 -6 -8 3 -8 11 0 11 -3 1 -15 -6
-8 -9 -19 -5 -25 3 -5 0 -10 -7 -10 -9 0 -9 -3 2 -10 13 -9 13 -10 0 -10 -13
0 -13 -1 0 -10 14 -9 7 -15 -14 -11 -5 1 -4 -4 3 -13 7 -8 8 -17 2 -20 -9 -6
-9 -31 1 -41 3 -3 2 -23 -2 -45 -4 -22 -4 -40 -1 -40 4 0 7 -10 8 -21 2 -20
27 -46 46 -47 5 0 15 -9 23 -19 9 -13 13 -14 14 -4 0 10 3 11 13 2 8 -6 17 -8
20 -4 4 3 7 1 7 -6 0 -9 5 -9 20 -1 17 9 20 8 20 -7 0 -11 3 -14 8 -7 4 6 16
9 27 7 11 -3 29 -5 40 -6 11 0 23 -6 28 -11 5 -8 10 -7 16 3 5 7 14 10 20 7 7
-5 10 -2 9 6 -2 8 6 13 19 12 13 -1 20 3 17 8 -4 5 4 16 15 25 12 8 20 20 18
26 -2 7 3 18 12 25 12 10 13 15 4 18 -7 3 -13 10 -13 15 0 6 5 7 12 3 7 -4 8
-3 4 4 -4 6 -2 20 4 31 5 11 6 22 1 25 -10 7 -2 56 13 75 9 12 8 13 -4 6 -13
-8 -13 -7 -1 8 7 9 11 17 8 17 -3 0 -2 14 3 30 5 19 5 30 -1 30 -6 0 -6 7 1
19 7 14 7 22 -1 27 -8 4 -7 9 2 15 12 8 12 10 0 18 -11 7 -10 11 5 20 11 6 13
11 7 11 -7 0 -13 6 -13 14 0 8 -7 16 -15 20 -8 3 -12 12 -9 20 4 10 0 14 -13
12 -10 -2 -21 2 -25 7 -7 11 -28 16 -90 19 -21 2 -38 7 -38 12 0 4 -6 4 -13
-3 -10 -8 -17 -7 -25 1 -7 7 -12 8 -12 4 0 -5 -8 -2 -17 5 -14 12 -16 12 -8 0z
m18 -134 c-4 -7 1 -6 11 2 10 9 20 11 24 5 8 -10 17 -13 61 -16 17 -1 31 -6
31 -11 0 -4 6 -5 13 -1 8 5 8 2 -2 -9 -7 -9 -9 -17 -4 -17 6 0 6 -13 -1 -34
-6 -19 -15 -32 -21 -29 -5 4 -1 -3 9 -15 12 -14 15 -22 6 -22 -7 0 -10 -7 -6
-15 3 -8 0 -15 -6 -15 -7 0 -7 -4 1 -14 8 -10 9 -16 1 -21 -6 -3 -8 -11 -5
-16 4 -5 2 -9 -4 -9 -7 0 -7 -8 -1 -26 6 -15 6 -23 1 -19 -5 3 -11 -5 -13 -17
-2 -13 -9 -22 -16 -21 -6 2 -12 -2 -12 -7 0 -7 -6 -7 -20 0 -14 8 -20 8 -20 0
0 -6 -5 -8 -10 -5 -6 4 -8 10 -5 15 7 11 -29 7 -37 -5 -5 -6 -8 -6 -8 2 0 7
-9 10 -21 8 -15 -3 -19 0 -15 10 3 8 0 15 -7 16 -9 0 -9 2 1 6 6 2 10 9 7 14
-3 5 -1 18 6 30 6 12 7 24 3 28 -14 10 -14 43 0 38 8 -3 11 10 10 44 0 26 3
46 7 43 4 -2 7 5 6 16 -1 11 -6 20 -11 20 -6 0 -5 5 2 12 7 7 12 19 12 28 0 9
9 16 20 17 13 1 18 -2 13 -10z"/>
<path d="M4397 1103 c-9 -10 -17 -13 -17 -7 0 6 -7 11 -15 11 -8 0 -15 -4 -15
-9 0 -5 -6 -6 -12 -1 -20 12 -39 12 -31 0 4 -6 0 -8 -9 -4 -17 6 -19 -8 -5
-30 5 -7 4 -13 0 -13 -10 0 -9 -77 0 -87 4 -3 -1 -12 -11 -20 -9 -8 -11 -11
-3 -7 11 5 13 3 8 -9 -3 -10 -2 -17 4 -17 6 0 7 -5 4 -11 -12 -19 -7 -81 7
-90 8 -6 9 -9 1 -9 -12 0 -12 -17 -1 -35 4 -6 3 -17 -2 -25 -5 -9 -4 -20 3
-29 9 -12 9 -13 0 -7 -7 4 -13 2 -13 -3 0 -6 5 -11 11 -11 6 0 10 -19 9 -47
-3 -75 -1 -95 9 -88 5 3 17 -2 25 -11 9 -9 16 -11 16 -4 0 7 11 10 27 8 17 -2
27 2 29 12 1 8 5 23 9 33 4 10 3 17 -4 17 -6 0 -11 5 -11 11 0 5 6 7 13 3 8
-5 8 -3 -2 9 -7 9 -11 26 -8 37 3 11 1 23 -5 26 -6 4 -5 10 3 15 11 7 12 11 1
17 -10 7 -10 11 2 22 9 7 13 17 9 23 -4 6 -1 7 6 2 16 -9 91 -12 91 -3 0 4 7
5 15 2 8 -4 15 -1 15 4 0 6 8 9 18 7 11 -2 19 3 19 11 0 8 -5 14 -10 14 -5 0
-3 8 4 17 12 15 12 16 -1 8 -13 -8 -13 -7 -1 9 12 14 12 19 2 25 -7 5 -12 12
-12 16 1 5 -14 9 -33 10 -24 1 -32 -3 -29 -12 4 -11 0 -11 -22 -3 -32 12 -38
13 -31 1 8 -12 -21 -8 -33 5 -12 12 -21 72 -14 90 3 9 21 14 55 14 27 0 47 4
44 9 -7 10 13 9 31 -2 6 -4 15 -2 18 3 5 7 12 5 21 -7 13 -16 14 -16 8 0 -3 9
-2 17 4 17 6 0 7 13 2 34 -6 29 -5 34 9 28 13 -5 14 -3 4 10 -7 8 -9 19 -5 23
4 5 -1 5 -10 2 -9 -3 -19 -1 -22 6 -5 9 -7 9 -12 -1 -5 -10 -9 -10 -20 -1 -11
9 -14 8 -14 -2 0 -11 -3 -11 -11 1 -8 12 -12 12 -16 2 -4 -10 -8 -10 -19 -1
-11 9 -14 8 -14 -2 0 -11 -2 -11 -10 1 -6 10 -10 11 -10 3 0 -7 -7 -13 -16
-13 -8 0 -12 5 -9 10 9 15 1 12 -18 -7z"/>
</g>
</svg>
